{"glyphs":{"0":{"ha":726,"x_min":51,"x_max":674,"o":"m 641 700 q 657 648 641 700 q 674 461 674 596 q 641 222 674 326 q 537 53 608 118 q 363 -12 465 -12 q 188 53 260 -12 q 84 222 117 118 q 51 461 51 326 q 84 700 51 596 q 188 869 117 804 q 363 935 260 935 q 537 869 465 935 q 641 700 608 804 m 496 757 q 473 815 496 757 q 363 872 450 872 q 229 757 275 872 q 183 461 183 642 q 229 165 183 281 q 363 50 275 50 q 496 165 450 50 q 542 461 542 281 q 496 757 542 642 z "},"1":{"ha":560,"x_min":57,"x_max":497,"o":"m 365 921 q 360 558 360 774 q 368 125 360 210 l 371 96 q 399 61 374 72 q 497 36 425 50 l 493 -4 q 293 0 410 0 q 68 -4 176 0 l 64 36 q 116 47 88 42 q 162 56 144 51 q 189 63 179 60 q 208 72 199 67 q 229 96 226 81 q 239 393 239 178 q 231 806 239 728 l 229 828 l 61 857 l 57 907 q 336 935 231 907 l 365 921 z "},"2":{"ha":718,"x_min":42,"x_max":650,"o":"m 617 683 q 576 521 617 606 q 484 373 536 436 q 361 244 432 310 q 179 99 261 156 l 182 92 q 510 114 439 92 q 613 238 581 136 l 650 221 q 617 0 625 144 l 58 0 l 42 56 q 183 182 93 94 q 331 340 272 269 q 437 502 389 411 q 485 676 485 593 q 435 799 485 758 q 304 840 385 840 q 88 786 189 840 l 68 825 q 346 935 199 935 q 538 869 458 935 q 617 683 617 803 z "},"3":{"ha":667,"x_min":35,"x_max":597,"o":"m 597 282 q 475 46 597 151 q 161 -60 353 -60 q 35 -46 99 -60 l 39 21 q 153 8 101 8 q 383 85 300 8 q 465 264 465 163 q 409 401 465 344 q 251 457 353 457 q 147 443 201 457 l 151 497 q 353 602 285 528 q 422 734 422 676 q 390 822 422 792 q 287 853 357 853 q 108 786 217 853 l 89 825 q 343 936 210 936 q 491 888 432 936 q 550 772 550 839 q 343 521 550 628 l 343 514 q 535 433 474 494 q 597 282 597 371 z "},"4":{"ha":726,"x_min":28,"x_max":693,"o":"m 689 -4 q 481 0 601 0 q 274 -4 361 0 l 269 36 q 322 47 293 42 q 367 56 350 51 q 394 63 385 60 q 414 72 404 67 q 435 96 432 81 q 443 258 439 128 l 44 258 l 28 313 l 394 1003 l 521 990 l 128 335 l 444 335 l 444 592 q 447 599 444 594 q 480 613 450 604 q 565 625 510 622 q 567 336 565 386 l 679 336 l 688 315 l 635 251 q 568 257 635 254 l 576 96 q 602 60 579 71 q 693 36 625 50 l 689 -4 z "},"5":{"ha":679,"x_min":50,"x_max":610,"o":"m 532 831 q 441 839 499 839 q 206 822 383 839 l 167 610 q 498 513 386 603 q 610 291 610 424 q 489 49 610 158 q 179 -60 368 -60 q 50 -46 115 -60 l 54 17 q 147 10 110 10 q 389 86 300 10 q 478 267 478 163 q 382 447 478 372 q 107 521 286 521 l 90 575 l 156 913 l 579 958 l 589 938 l 532 831 z "},"6":{"ha":675,"x_min":42,"x_max":619,"o":"m 379 474 q 556 405 492 474 q 619 238 619 336 q 547 63 619 139 q 343 -12 475 -12 q 126 85 211 -12 q 42 325 42 182 q 92 544 42 435 q 266 767 143 654 q 571 961 389 879 l 593 913 q 354 739 451 847 q 178 311 178 544 q 221 130 178 201 q 335 58 264 58 q 444 111 406 58 q 482 238 482 164 q 442 362 482 311 q 336 413 403 413 q 260 396 301 413 l 254 451 q 379 474 319 474 z "},"7":{"ha":663,"x_min":63,"x_max":663,"o":"m 446 833 l 364 833 q 251 828 276 833 q 199 815 225 822 q 163 798 174 808 q 139 772 153 788 q 100 689 119 751 l 63 706 q 79 931 79 799 q 400 925 167 925 q 658 926 633 925 l 663 886 l 271 -46 l 144 -33 l 544 801 q 446 833 540 833 z "},"8":{"ha":701,"x_min":63,"x_max":639,"o":"m 496 732 q 496 761 496 732 q 458 832 496 790 q 353 874 419 874 q 251 836 288 874 q 214 742 214 799 q 379 532 214 626 q 465 618 433 563 q 496 732 496 674 m 183 224 q 183 190 183 224 q 226 106 183 156 q 342 57 269 57 q 461 107 414 57 q 508 225 508 157 q 321 442 508 360 q 219 351 256 410 q 183 224 183 293 m 639 236 q 552 60 639 132 q 336 -12 465 -12 q 135 54 207 -12 q 63 208 63 121 q 115 365 63 296 q 268 467 168 433 q 86 714 86 576 q 165 872 86 808 q 359 935 243 935 q 542 877 475 935 q 608 744 608 819 q 563 603 608 668 q 429 506 517 539 q 639 236 639 397 z "},"9":{"ha":699,"x_min":56,"x_max":657,"o":"m 317 410 q 126 488 196 410 q 56 672 56 565 q 130 857 56 779 q 341 935 204 935 q 567 833 478 935 q 657 579 657 731 q 520 217 657 399 q 103 -92 383 35 l 81 -42 q 281 89 193 11 q 421 253 369 167 q 524 594 524 428 q 475 787 524 711 q 348 863 426 863 q 226 803 269 863 q 182 665 182 744 q 228 528 182 586 q 357 469 274 469 q 422 478 386 469 l 428 426 q 317 410 367 410 z "}," ":{"ha":347,"x_min":0,"x_max":0,"o":""},"!":{"ha":328,"x_min":89,"x_max":239,"o":"m 216 9 q 205 -2 216 9 q 164 -12 194 -12 q 112 9 133 -12 q 90 63 90 31 q 112 116 90 94 q 164 138 133 138 q 216 116 194 138 q 238 63 238 94 q 216 9 238 31 m 239 960 l 193 233 l 140 221 l 89 922 q 94 932 89 926 q 136 948 99 938 q 239 960 174 958 z "},"\"":{"ha":403,"x_min":50,"x_max":369,"o":"m 176 949 l 132 626 q 76 608 133 608 l 50 915 q 56 925 51 919 q 93 940 61 931 q 176 949 125 949 m 369 949 l 325 626 q 269 608 326 608 l 243 915 q 264 933 243 925 q 369 949 304 949 z "},"#":{"ha":726,"x_min":33,"x_max":693,"o":"m 33 310 l 33 394 l 167 394 l 203 535 l 90 535 l 90 619 l 225 619 l 307 936 l 397 936 l 315 619 l 493 619 l 575 936 l 665 936 l 583 619 l 693 619 l 693 535 l 561 535 l 525 394 l 639 394 l 639 310 l 504 310 l 421 -12 l 331 -12 l 414 310 l 236 310 l 153 -12 l 63 -12 l 146 310 l 33 310 m 293 535 l 257 394 l 435 394 l 471 535 l 293 535 z "},"$":{"ha":726,"x_min":103,"x_max":629,"o":"m 124 211 l 122 236 l 156 251 q 198 119 171 163 q 276 61 225 75 l 319 408 l 264 449 q 152 551 183 506 q 121 685 121 597 q 189 832 121 774 q 368 890 257 890 l 381 890 l 401 1058 l 464 1058 l 442 882 q 518 872 500 872 q 571 879 536 872 l 571 861 q 586 685 571 786 l 553 668 q 505 774 533 738 q 433 821 476 810 l 396 519 l 476 465 q 593 356 557 410 q 629 231 629 301 q 554 53 629 119 q 356 -12 479 -12 l 331 -12 l 311 -168 l 249 -168 l 268 -6 q 103 35 179 4 q 124 211 124 129 m 493 193 q 472 283 493 251 q 404 349 450 315 l 378 368 l 339 54 q 493 193 493 54 m 372 829 q 276 797 314 829 q 239 715 239 764 q 265 629 239 665 q 339 558 292 593 l 372 829 z "},"%":{"ha":1089,"x_min":111,"x_max":922,"o":"m 203 -1 l 775 943 l 842 943 l 269 -1 l 203 -1 m 321 836 q 313 861 321 836 q 274 886 304 886 q 226 836 243 886 q 210 708 210 786 q 226 580 210 629 q 274 531 243 531 q 321 580 304 531 q 338 708 338 629 q 321 836 338 786 m 394 870 q 415 838 394 870 q 436 707 436 806 q 394 544 436 608 q 274 481 353 481 q 153 544 194 481 q 111 707 111 608 q 153 870 111 806 q 274 935 194 935 q 394 870 353 935 m 807 343 q 799 368 807 343 q 760 393 790 393 q 713 343 729 393 q 696 215 696 293 q 713 87 696 136 q 760 38 729 38 q 807 87 790 38 q 824 215 824 136 q 807 343 824 293 m 881 377 q 901 345 881 377 q 922 214 922 313 q 881 51 922 115 q 760 -12 839 -12 q 639 51 681 -12 q 597 214 597 115 q 639 377 597 313 q 760 442 681 442 q 881 377 839 442 z "},"&":{"ha":1026,"x_min":69,"x_max":1026,"o":"m 340 -14 q 143 53 217 -14 q 69 215 69 119 q 126 383 69 311 q 303 526 182 454 q 204 776 204 692 q 267 922 204 861 q 430 982 331 982 q 595 940 529 982 q 661 815 661 899 q 578 657 661 732 q 435 546 517 600 q 675 232 540 378 q 739 429 739 332 q 713 467 739 453 q 619 493 686 481 l 624 533 q 806 525 704 525 q 975 533 908 525 l 979 493 q 847 421 867 471 q 717 188 794 288 q 836 113 768 139 q 1022 86 904 88 l 1026 46 q 744 -18 818 1 q 633 99 682 44 q 340 -14 497 -14 m 199 250 q 254 106 199 149 q 403 64 310 64 q 594 143 497 64 q 335 479 431 332 q 199 250 199 374 m 426 925 q 404 925 426 925 q 353 894 382 925 q 324 797 324 864 q 407 588 324 729 q 538 803 538 679 q 503 893 538 861 q 426 925 469 925 z "},"'":{"ha":211,"x_min":50,"x_max":178,"o":"m 178 949 l 133 626 q 78 608 135 608 l 50 915 q 56 925 51 919 q 93 940 61 931 q 178 949 125 949 z "},"(":{"ha":551,"x_min":97,"x_max":440,"o":"m 228 404 q 281 111 228 261 q 440 -161 335 -39 l 397 -201 q 167 90 238 -71 q 97 404 97 250 q 397 985 97 740 l 440 946 q 228 404 228 696 z "},")":{"ha":551,"x_min":111,"x_max":454,"o":"m 324 404 q 111 946 324 696 l 154 985 q 454 404 454 740 q 384 90 454 250 q 154 -201 314 -71 l 111 -161 q 270 111 217 -39 q 324 404 324 261 z "},"*":{"ha":635,"x_min":43,"x_max":593,"o":"m 446 483 l 349 483 q 300 686 332 589 l 153 514 l 106 528 l 74 619 q 254 728 171 668 q 67 806 114 785 q 43 817 67 806 l 43 865 l 119 922 q 279 783 196 844 l 297 1014 l 344 1031 l 421 974 q 339 779 371 876 l 564 832 l 593 793 l 564 701 q 354 719 457 718 l 472 524 l 446 483 z "},"+":{"ha":726,"x_min":33,"x_max":693,"o":"m 321 751 l 406 751 l 406 464 l 693 464 l 693 379 l 406 379 l 406 92 l 321 92 l 321 379 l 33 379 l 33 464 l 321 464 l 321 751 z "},",":{"ha":297,"x_min":42,"x_max":257,"o":"m 79 58 q 79 74 79 58 q 102 108 79 89 q 162 126 125 126 q 228 92 199 126 q 257 1 257 57 q 207 -112 257 -54 q 54 -204 157 -171 l 42 -174 q 192 10 192 -106 q 144 -11 172 -11 q 98 8 117 -11 q 79 58 79 28 z "},"-":{"ha":436,"x_min":25,"x_max":411,"o":"m 357 335 q 240 329 322 335 q 56 306 117 321 l 36 300 l 25 322 l 79 394 q 186 400 96 394 q 383 422 340 410 l 400 428 l 411 407 l 357 335 z "},".":{"ha":229,"x_min":42,"x_max":188,"o":"m 166 9 q 155 -2 166 9 q 114 -12 144 -12 q 63 9 83 -12 q 42 63 42 31 q 63 115 42 94 q 114 136 83 136 q 166 115 144 136 q 188 63 188 94 q 166 9 188 31 z "},"/":{"ha":403,"x_min":28,"x_max":375,"o":"m 28 -194 l 285 974 l 375 974 l 118 -194 l 28 -194 z "},":":{"ha":272,"x_min":83,"x_max":231,"o":"m 209 9 q 198 -2 209 9 q 157 -12 188 -12 q 105 9 126 -12 q 83 63 83 31 q 105 116 83 94 q 157 138 126 138 q 209 116 188 138 q 231 63 231 94 q 209 9 231 31 m 209 431 q 198 420 209 431 q 157 410 188 410 q 105 431 126 410 q 83 485 83 453 q 105 538 83 517 q 157 560 126 560 q 209 538 188 560 q 231 485 231 517 q 209 431 231 453 z "},";":{"ha":293,"x_min":38,"x_max":253,"o":"m 209 431 q 198 420 209 431 q 157 410 188 410 q 105 431 126 410 q 83 485 83 453 q 105 538 83 517 q 157 560 126 560 q 209 538 188 560 q 231 485 231 517 q 209 431 231 453 m 75 58 q 75 74 75 58 q 98 108 75 89 q 158 126 121 126 q 224 92 194 126 q 253 1 253 57 q 203 -112 253 -54 q 50 -204 153 -171 l 38 -174 q 188 10 188 -106 q 140 -11 168 -11 q 94 8 113 -11 q 75 58 75 28 z "},"<":{"ha":726,"x_min":51,"x_max":676,"o":"m 676 78 l 51 421 l 676 764 l 676 668 l 210 421 l 676 174 l 676 78 z "},"=":{"ha":726,"x_min":33,"x_max":693,"o":"m 33 492 l 33 576 l 693 576 l 693 492 l 33 492 m 33 267 l 33 351 l 693 351 l 693 267 l 33 267 z "},">":{"ha":726,"x_min":51,"x_max":676,"o":"m 676 421 l 51 78 l 51 174 l 518 421 l 51 668 l 51 764 l 676 421 z "},"?":{"ha":476,"x_min":69,"x_max":407,"o":"m 258 9 q 247 -2 258 9 q 206 -12 236 -12 q 153 9 175 -12 q 132 63 132 31 q 153 116 132 94 q 206 138 175 138 q 258 116 236 138 q 279 63 279 94 q 258 9 279 31 m 69 892 q 100 963 69 939 q 407 653 407 826 q 339 524 407 583 q 281 472 310 499 q 213 345 213 411 q 233 233 213 279 l 181 221 q 107 415 107 331 q 144 492 107 453 q 224 558 181 531 q 305 622 268 585 q 342 692 342 658 q 277 775 342 742 q 94 811 213 808 q 77 849 85 822 q 69 892 69 875 z "},"@":{"ha":1085,"x_min":56,"x_max":1029,"o":"m 889 49 q 706 -56 807 -17 q 512 -94 604 -94 q 340 -65 419 -94 q 197 20 261 -36 q 94 168 132 76 q 56 364 56 260 q 92 558 56 468 q 196 722 129 647 q 369 841 263 796 q 603 886 475 886 q 919 780 808 886 q 1029 528 1029 674 q 930 276 1029 382 q 660 171 831 171 q 597 189 615 171 q 579 235 579 207 q 596 333 579 264 l 590 333 q 403 172 476 172 q 331 210 357 172 q 304 318 304 249 q 392 541 304 443 q 617 639 479 639 q 701 625 665 639 l 743 656 l 764 656 q 698 400 724 528 q 672 213 672 272 q 853 299 783 213 q 924 500 924 385 q 767 779 924 688 q 560 829 681 829 q 281 702 389 829 q 174 398 174 575 q 272 94 174 221 q 535 -32 369 -32 q 867 81 701 -32 l 889 49 m 621 603 q 474 512 528 603 q 419 335 419 421 q 454 249 419 249 q 608 400 483 249 l 658 596 q 621 603 638 603 z "},"A":{"ha":964,"x_min":0,"x_max":964,"o":"m 347 -4 q 176 0 260 0 q 4 -4 92 0 l 0 36 q 90 63 64 49 q 125 104 117 78 l 401 950 l 522 964 l 846 96 q 878 60 856 72 q 964 36 901 49 l 960 -4 q 769 0 872 0 q 579 -4 667 0 l 575 36 q 689 72 674 56 q 697 87 697 79 q 621 336 697 94 l 307 336 l 232 89 q 260 60 232 71 q 351 36 288 49 l 347 -4 m 458 819 l 453 819 q 428 740 443 786 q 385 595 414 693 q 326 400 356 497 l 599 400 l 458 819 z "},"B":{"ha":869,"x_min":40,"x_max":801,"o":"m 240 951 l 474 951 q 672 888 604 951 q 740 729 740 824 q 701 608 740 665 q 594 517 663 550 q 753 431 704 492 q 801 265 801 369 q 714 81 801 161 q 496 0 626 0 l 240 0 q 44 -4 132 0 l 40 36 q 136 61 111 50 q 164 96 161 72 q 175 393 175 178 q 167 828 175 742 l 164 856 q 139 891 161 881 q 50 915 117 901 l 54 956 q 240 951 142 951 m 610 729 q 399 893 610 893 q 334 888 349 893 q 314 863 319 882 q 299 511 299 792 q 506 528 396 528 q 610 729 610 596 m 454 50 q 606 108 542 50 q 669 268 669 167 q 386 469 669 469 q 299 465 344 469 q 310 121 299 192 l 314 94 q 454 50 326 50 z "},"C":{"ha":972,"x_min":67,"x_max":928,"o":"m 565 51 q 779 105 696 51 q 890 250 863 158 l 928 233 q 896 47 913 183 q 561 -17 725 -17 q 200 108 333 -17 q 67 453 67 232 q 199 819 67 674 q 560 964 331 964 q 703 953 624 964 q 811 943 782 943 q 874 951 840 943 l 874 931 q 890 735 874 829 l 853 718 q 558 900 797 900 q 319 801 419 900 q 241 672 269 753 q 213 499 213 592 q 232 332 213 407 q 292 193 251 257 q 403 90 332 129 q 565 51 474 51 z "},"D":{"ha":1068,"x_min":40,"x_max":1000,"o":"m 240 951 l 488 951 q 775 889 649 951 q 969 678 915 817 q 1000 507 1000 601 q 863 142 1000 283 q 464 0 725 0 l 240 0 q 44 -4 132 0 l 40 36 q 136 61 111 50 q 164 96 161 72 q 175 393 175 178 q 167 828 175 742 l 164 856 q 139 891 161 881 q 50 915 117 901 l 54 956 q 240 951 142 951 m 315 83 q 475 67 390 67 q 636 101 560 67 q 753 181 713 135 q 817 292 793 228 q 854 486 854 386 q 401 893 854 893 q 335 888 351 893 q 315 864 319 882 q 300 558 300 774 q 311 115 300 224 l 315 83 z "},"E":{"ha":844,"x_min":38,"x_max":797,"o":"m 299 454 q 310 121 299 192 l 314 94 q 454 50 326 50 q 556 55 518 50 q 638 78 594 60 q 760 238 718 110 l 797 221 q 764 0 772 144 l 208 0 q 42 -4 129 0 l 38 36 q 133 61 108 50 q 161 96 158 72 q 174 392 174 176 q 165 828 174 742 l 163 856 q 138 891 160 881 q 49 915 115 901 l 53 956 q 382 951 140 951 q 738 960 624 951 l 738 939 q 754 735 738 829 l 717 718 q 631 863 681 832 q 442 893 581 893 q 349 888 379 893 q 314 863 318 882 q 299 510 300 772 q 510 518 475 510 q 556 549 546 526 q 581 643 567 571 l 629 638 q 618 483 618 557 q 629 328 618 410 l 581 321 q 556 415 567 393 q 510 446 546 438 q 299 454 475 454 z "},"F":{"ha":769,"x_min":40,"x_max":738,"o":"m 300 454 q 308 124 300 207 l 311 96 q 338 60 314 71 q 429 36 361 50 l 425 -4 q 235 0 338 0 q 44 -4 132 0 l 40 36 q 136 61 111 50 q 164 96 161 72 q 175 393 175 178 q 167 828 175 742 l 164 856 q 139 891 161 881 q 50 915 117 901 l 54 956 q 374 951 142 951 q 721 960 607 951 l 721 939 q 738 735 721 829 l 700 718 q 614 863 664 832 q 425 893 564 893 q 321 881 336 893 q 313 863 314 874 q 300 510 301 775 q 523 518 488 510 q 569 549 558 526 q 593 643 579 571 l 642 638 q 631 483 631 557 q 642 328 631 410 l 593 321 q 569 415 579 393 q 523 446 558 438 q 300 454 488 454 z "},"G":{"ha":1054,"x_min":67,"x_max":1026,"o":"m 565 51 q 813 101 718 51 l 803 326 q 778 362 800 351 q 689 386 756 372 l 693 426 q 858 422 781 422 q 1022 426 935 422 l 1026 386 q 992 378 1006 382 q 971 372 979 374 q 958 363 963 369 q 953 354 954 356 q 950 326 950 347 l 940 76 q 561 -17 721 -17 q 200 108 333 -17 q 67 464 67 232 q 124 712 67 600 q 301 894 182 824 q 581 964 419 964 q 729 953 647 964 q 842 943 811 943 q 907 951 872 943 l 907 931 q 924 735 907 829 l 885 718 q 575 900 825 900 q 317 794 422 900 q 213 488 213 689 q 292 193 213 318 q 403 90 332 129 q 565 51 474 51 z "},"H":{"ha":1115,"x_min":40,"x_max":1069,"o":"m 694 956 q 878 951 782 951 q 1061 956 974 951 l 1065 915 q 976 891 999 901 q 951 856 954 881 q 940 558 940 774 q 949 125 940 210 l 951 96 q 978 60 954 71 q 1069 36 1001 50 l 1065 -4 q 875 0 978 0 q 685 -4 772 0 l 681 36 q 776 61 751 50 q 804 96 801 72 q 815 456 815 169 q 614 463 761 463 q 319 457 397 463 l 300 456 q 308 122 300 199 l 311 96 q 338 60 314 71 q 429 36 361 50 l 425 -4 q 235 0 338 0 q 44 -4 132 0 l 40 36 q 136 61 111 50 q 164 96 161 72 q 175 393 175 178 q 167 828 175 742 l 164 856 q 139 891 161 881 q 50 915 117 901 l 54 956 q 238 951 142 951 q 421 956 333 951 l 425 915 q 336 891 358 901 q 311 856 314 881 q 300 533 301 789 q 500 526 354 526 q 796 532 718 526 l 815 533 q 807 832 815 761 l 804 856 q 779 891 801 881 q 690 915 757 901 l 694 956 z "},"I":{"ha":475,"x_min":40,"x_max":429,"o":"m 311 856 q 300 558 300 774 q 308 125 300 210 l 311 96 q 338 60 314 71 q 429 36 361 50 l 425 -4 q 235 0 338 0 q 44 -4 132 0 l 40 36 q 136 61 111 50 q 164 96 161 72 q 175 393 175 178 q 167 828 175 742 l 164 856 q 139 891 161 881 q 50 915 117 901 l 54 956 q 238 951 142 951 q 421 956 333 951 l 425 915 q 336 891 358 901 q 311 856 314 881 z "},"J":{"ha":489,"x_min":-46,"x_max":454,"o":"m 40 -247 q -5 -213 28 -247 q -46 -146 -37 -179 l -24 -118 q 63 -146 17 -146 q 129 -128 108 -146 q 169 -56 150 -111 q 204 415 204 50 q 196 811 204 681 l 193 856 q 168 891 190 881 q 79 915 146 901 l 83 956 q 267 951 171 951 q 450 956 363 951 l 454 915 q 363 891 386 901 q 336 856 339 881 q 329 299 329 597 q 299 63 329 171 q 222 -110 268 -46 q 128 -211 176 -175 q 40 -247 79 -247 z "},"K":{"ha":967,"x_min":40,"x_max":965,"o":"m 425 -4 q 235 0 338 0 q 44 -4 132 0 l 40 36 q 136 61 111 50 q 164 96 161 72 q 175 393 175 178 q 167 828 175 742 l 164 856 q 139 891 161 881 q 50 915 117 901 l 54 956 q 238 951 142 951 q 421 956 333 951 l 425 915 q 336 891 358 901 q 311 856 314 881 q 300 507 300 778 l 667 858 q 672 868 672 863 q 569 915 672 894 l 574 956 q 745 951 661 951 q 917 956 829 951 l 921 915 q 763 849 810 893 l 464 565 l 850 60 q 965 36 882 43 l 961 -4 l 729 -12 l 374 481 l 300 411 q 308 119 300 193 l 311 96 q 338 60 314 71 q 429 36 361 50 l 425 -4 z "},"L":{"ha":806,"x_min":39,"x_max":789,"o":"m 311 96 q 355 63 313 75 q 453 50 397 50 q 548 55 510 50 q 629 78 586 60 q 751 238 710 110 l 789 221 q 756 0 764 144 l 210 0 q 43 -4 131 0 l 39 36 q 135 61 110 50 q 163 96 160 72 q 175 392 175 176 q 167 828 175 742 l 164 856 q 139 891 161 881 q 50 915 117 901 l 54 956 q 238 951 142 951 q 421 956 333 951 l 425 915 q 336 891 358 901 q 311 856 314 881 q 300 558 300 774 q 308 125 300 210 l 311 96 z "},"M":{"ha":1281,"x_min":32,"x_max":1247,"o":"m 271 731 q 257 242 257 383 l 261 96 q 335 47 265 63 q 392 36 351 44 l 388 -4 q 197 0 300 0 q 36 -4 94 0 l 32 36 q 124 61 99 50 q 151 96 149 72 q 179 671 179 321 l 174 856 q 149 891 171 881 q 60 915 126 901 l 64 956 q 306 951 151 951 l 636 132 l 967 951 q 1213 956 1125 951 l 1217 915 q 1128 891 1150 901 q 1101 854 1106 881 q 1097 763 1097 828 q 1104 475 1097 697 q 1126 122 1118 200 l 1129 96 q 1156 60 1132 71 q 1247 36 1179 50 l 1243 -4 q 1053 0 1156 0 q 863 -4 950 0 l 858 36 q 956 61 931 50 q 982 96 982 72 q 983 293 983 142 q 965 731 983 444 l 957 731 l 660 1 l 574 -14 l 276 731 l 271 731 z "},"N":{"ha":1090,"x_min":29,"x_max":1058,"o":"m 844 183 q 847 435 847 261 q 839 828 847 753 l 835 856 q 761 903 831 889 q 704 915 744 907 l 708 956 q 881 951 796 951 q 1054 956 967 951 l 1058 915 q 969 891 992 901 q 944 856 947 881 q 931 558 931 774 q 942 53 931 229 l 946 0 l 835 -12 l 271 746 l 264 746 q 258 483 258 624 q 269 125 258 221 l 274 96 q 347 47 278 63 q 404 36 364 44 l 400 -4 q 217 0 313 0 q 33 -4 121 0 l 29 36 q 132 61 103 50 q 164 96 161 72 q 175 392 175 176 q 167 828 175 742 l 164 856 q 139 891 161 881 q 50 915 117 901 l 54 956 q 261 951 142 951 l 838 183 l 844 183 z "},"O":{"ha":1092,"x_min":68,"x_max":1024,"o":"m 553 903 q 410 871 472 903 q 311 792 347 839 q 253 685 275 744 q 214 490 214 585 q 231 320 214 396 q 283 181 247 244 q 385 81 319 117 q 531 44 450 44 q 672 72 613 44 q 769 142 732 100 q 831 239 806 185 q 878 433 875 335 q 553 903 878 903 m 907 144 q 749 23 849 68 q 517 -22 649 -22 q 178 101 289 -22 q 68 436 68 224 q 185 803 68 650 q 343 924 243 879 q 575 969 443 969 q 913 847 803 969 q 1024 513 1024 725 q 907 144 1024 300 z "},"P":{"ha":800,"x_min":40,"x_max":765,"o":"m 240 951 l 451 951 q 685 878 604 951 q 765 691 765 804 q 665 483 765 578 q 399 389 565 389 q 300 397 353 389 l 311 96 q 338 60 314 71 q 429 36 361 50 l 425 -4 q 235 0 338 0 q 44 -4 132 0 l 40 36 q 136 61 111 50 q 164 96 161 72 q 175 393 175 178 q 167 828 175 742 l 164 856 q 139 891 161 881 q 50 915 117 901 l 54 956 q 240 951 142 951 m 376 447 q 564 504 496 447 q 632 677 632 561 q 574 843 632 793 q 399 893 515 893 q 333 886 347 893 q 314 846 319 879 q 300 451 300 774 q 376 447 340 447 z "},"Q":{"ha":1100,"x_min":68,"x_max":1111,"o":"m 532 -21 l 517 -22 q 178 101 289 -22 q 68 436 68 224 q 185 803 68 650 q 343 924 243 879 q 575 969 443 969 q 913 847 803 969 q 1024 513 1024 725 q 938 188 1024 331 q 678 -1 851 46 l 1111 -217 l 1111 -247 l 996 -301 q 532 -21 711 -107 m 553 903 q 410 871 472 903 q 311 792 347 839 q 253 685 275 744 q 214 490 214 585 q 231 320 214 396 q 283 181 247 244 q 385 81 319 117 q 531 44 450 44 q 672 72 613 44 q 769 142 732 100 q 831 239 806 185 q 878 433 875 335 q 553 903 878 903 z "},"R":{"ha":928,"x_min":40,"x_max":928,"o":"m 432 -4 q 237 0 342 0 q 44 -4 132 0 l 40 36 q 136 61 111 50 q 164 96 161 72 q 175 393 175 178 q 167 828 175 742 l 164 856 q 139 891 161 881 q 50 915 117 901 l 54 956 q 240 951 142 951 l 481 951 q 685 888 615 951 q 756 729 756 824 q 568 467 756 560 l 813 60 q 928 36 844 43 l 924 -4 l 689 -12 l 443 447 q 300 444 396 444 q 311 117 300 188 l 315 96 q 342 60 318 71 q 436 36 367 50 l 432 -4 m 629 729 q 399 893 629 893 q 334 888 349 893 q 314 863 319 882 q 300 499 300 779 q 518 513 453 499 q 629 729 629 581 z "},"S":{"ha":733,"x_min":67,"x_max":667,"o":"m 578 718 q 501 857 550 819 q 372 894 451 894 q 251 856 293 894 q 210 763 210 818 q 303 611 210 672 l 522 468 q 667 244 667 374 q 584 63 667 140 q 343 -14 501 -14 q 67 36 185 -14 q 89 240 89 150 l 126 257 q 192 100 147 143 q 330 57 236 57 q 473 103 424 57 q 522 211 522 149 q 432 354 522 296 l 210 500 q 82 714 82 583 q 161 890 82 815 q 368 964 240 964 q 460 953 410 964 q 538 943 511 943 q 599 951 564 943 l 599 931 q 615 735 599 829 l 578 718 z "},"T":{"ha":892,"x_min":15,"x_max":876,"o":"m 32 960 q 446 951 146 951 q 860 960 746 951 l 860 939 q 876 735 860 829 l 839 718 q 753 863 803 832 q 564 893 703 893 q 518 856 522 893 q 507 558 507 774 q 515 125 507 210 l 518 96 q 544 60 521 71 q 636 36 568 50 l 632 -4 q 442 0 544 0 q 251 -4 339 0 l 247 36 q 343 61 318 50 q 371 96 368 72 q 382 393 382 178 q 374 828 382 742 l 371 856 q 328 893 367 893 q 139 863 189 893 q 53 718 89 832 l 15 735 q 32 939 32 829 l 32 960 z "},"U":{"ha":1056,"x_min":31,"x_max":1035,"o":"m 685 956 q 858 951 772 951 q 1031 956 943 951 l 1035 915 q 944 891 967 901 q 921 856 922 881 q 906 343 914 706 q 811 82 901 181 q 528 -17 721 -17 q 370 -2 435 -17 q 256 50 306 13 q 154 328 157 124 q 144 856 149 676 q 122 891 144 881 q 31 915 99 901 l 35 956 q 218 951 122 951 q 401 956 314 951 l 406 915 q 317 891 339 901 q 292 856 294 881 q 279 578 279 765 q 280 361 279 392 q 283 287 281 331 q 293 219 286 243 q 312 166 300 196 q 342 121 324 136 q 386 90 360 106 q 526 63 432 63 q 679 91 619 63 q 769 177 739 119 q 811 303 800 235 q 822 488 822 371 q 814 825 822 736 l 811 856 q 738 903 807 889 q 681 915 721 907 l 685 956 z "},"V":{"ha":957,"x_min":-3,"x_max":964,"o":"m 617 956 q 788 951 704 951 q 960 956 872 951 l 964 915 q 876 888 903 903 q 839 847 850 874 q 549 0 628 282 l 413 -12 l 115 856 q 82 891 104 879 q -3 915 60 903 l 1 956 q 185 951 89 951 q 369 956 282 951 l 374 915 q 258 881 276 897 q 251 865 251 874 q 290 737 251 856 q 395 421 329 618 q 494 121 461 224 l 501 121 q 599 425 532 217 q 733 865 735 849 q 705 892 732 881 q 613 915 678 903 l 617 956 z "},"W":{"ha":1375,"x_min":-3,"x_max":1385,"o":"m 256 864 l 425 151 l 432 151 q 622 836 526 458 l 653 951 l 743 951 l 988 151 l 994 151 q 1153 863 1153 806 q 1126 892 1153 881 q 1033 915 1099 903 l 1038 956 q 1209 951 1125 951 q 1381 956 1293 951 l 1385 915 q 1293 888 1321 903 q 1260 847 1265 874 q 1040 0 1119 282 l 913 -12 l 682 738 l 676 738 l 469 0 l 342 -12 l 115 856 q 83 891 106 879 q -3 915 60 903 l 1 956 q 188 951 89 951 q 374 956 286 951 l 378 915 q 264 881 281 897 q 256 864 256 874 z "},"X":{"ha":972,"x_min":10,"x_max":967,"o":"m 240 86 q 361 36 240 61 l 357 -4 q 185 0 269 0 q 14 -4 101 0 l 10 36 q 91 63 67 47 q 135 104 115 78 q 426 474 286 289 q 147 865 157 850 q 116 892 138 879 q 36 915 94 904 l 40 956 q 231 951 128 951 q 421 956 333 951 l 425 915 q 301 865 301 892 q 508 568 301 851 l 707 856 q 711 865 711 861 q 589 915 711 892 l 593 956 q 765 951 681 951 q 936 956 849 951 l 940 915 q 859 889 883 904 q 815 847 835 874 l 557 500 q 678 333 610 426 q 849 96 783 188 q 887 60 865 72 q 967 36 908 47 l 963 -4 q 772 0 875 0 q 582 -4 669 0 l 578 36 q 673 60 644 50 q 701 88 701 71 q 699 97 701 89 q 474 410 593 244 l 243 96 q 240 86 240 93 z "},"Y":{"ha":890,"x_min":-6,"x_max":900,"o":"m 669 865 q 549 915 669 890 l 553 956 q 724 951 640 951 q 896 956 808 951 l 900 915 q 813 888 839 903 q 775 847 786 874 l 507 374 q 515 118 507 185 l 518 96 q 544 60 521 71 q 636 36 568 50 l 632 -4 q 442 0 544 0 q 251 -4 339 0 l 247 36 q 343 61 318 50 q 371 96 368 72 q 381 364 379 157 l 113 856 q 77 891 100 879 q -6 915 54 903 l -1 956 q 189 951 86 951 q 379 956 292 951 l 383 915 q 260 865 260 892 q 263 854 260 863 l 468 450 l 667 856 q 669 865 669 861 z "},"Z":{"ha":889,"x_min":42,"x_max":853,"o":"m 371 74 q 692 97 626 74 q 788 172 760 124 q 815 238 803 199 l 853 221 q 819 0 828 144 l 75 0 l 42 49 l 664 876 q 224 856 297 876 q 115 718 151 835 l 78 735 q 94 939 94 829 l 94 960 q 622 951 208 951 l 806 951 l 831 906 l 210 74 l 371 74 z "},"[":{"ha":593,"x_min":139,"x_max":482,"o":"m 147 894 l 139 968 l 168 982 q 482 954 274 954 l 478 904 l 267 882 q 285 486 285 703 q 271 -40 285 158 l 267 -100 l 478 -122 l 482 -172 q 168 -200 274 -172 l 139 -186 q 172 388 172 106 q 147 894 172 671 z "},"\\":{"ha":403,"x_min":28,"x_max":375,"o":"m 118 974 l 375 -194 l 285 -194 l 28 974 l 118 974 z "},"]":{"ha":593,"x_min":111,"x_max":454,"o":"m 446 -111 l 454 -185 l 425 -199 q 111 -171 319 -171 l 115 -121 l 326 -99 q 308 297 308 81 q 322 824 308 661 l 326 883 l 115 906 l 111 956 q 425 983 319 956 l 454 969 q 421 395 421 678 q 446 -111 421 113 z "},"^":{"ha":726,"x_min":50,"x_max":675,"o":"m 326 922 l 397 922 l 675 368 l 579 368 l 363 835 l 146 368 l 50 368 l 326 922 z "},"_":{"ha":642,"x_min":0,"x_max":642,"o":"m 61 -22 q 336 -29 201 -29 q 632 -22 471 -29 l 642 -43 l 581 -110 q 301 -104 431 -104 q 10 -111 171 -104 l 0 -89 l 61 -22 z "},"`":{"ha":396,"x_min":-29,"x_max":253,"o":"m 211 719 l -29 944 q 3 985 -26 968 q 67 1003 32 1003 l 253 726 l 211 719 z "},"a":{"ha":635,"x_min":54,"x_max":621,"o":"m 404 292 q 231 249 290 289 q 171 161 171 208 q 195 92 171 114 q 274 71 219 71 q 404 117 328 71 l 404 292 m 506 -12 q 408 78 422 -12 q 197 -12 286 -12 q 96 24 138 -12 q 54 139 54 61 q 137 279 54 217 q 404 354 219 342 l 404 483 q 376 543 404 522 q 296 564 347 564 q 214 535 244 564 q 183 463 183 507 q 188 425 183 446 l 157 411 q 105 453 129 426 q 81 491 81 479 q 99 526 81 503 q 150 575 118 549 q 235 620 182 601 q 356 639 289 639 q 464 606 422 639 q 506 488 506 574 q 514 128 506 403 q 564 61 515 61 q 607 72 585 61 l 621 36 q 506 -12 568 -12 z "},"b":{"ha":744,"x_min":11,"x_max":688,"o":"m 347 51 q 506 133 447 51 q 564 316 564 214 q 514 486 564 418 q 374 554 464 554 q 218 510 306 554 q 231 75 218 175 q 347 51 292 51 m 218 558 q 441 638 333 638 q 618 544 549 638 q 688 318 688 450 q 597 86 688 186 q 333 -14 507 -14 q 103 35 218 -14 q 114 414 114 157 q 106 903 114 832 l 103 926 l 14 953 l 11 989 q 194 1014 100 989 l 221 1001 q 218 558 218 847 z "},"c":{"ha":615,"x_min":50,"x_max":585,"o":"m 585 79 q 333 -12 469 -12 q 124 74 197 -12 q 50 298 50 160 q 135 538 50 436 q 374 639 221 639 q 485 619 436 639 q 556 578 535 599 q 576 544 576 557 q 543 443 576 489 l 510 443 q 453 526 493 489 q 351 564 414 564 q 219 487 265 564 q 172 298 172 410 q 226 128 172 186 q 378 69 281 69 q 568 125 475 69 l 585 79 z "},"d":{"ha":756,"x_min":54,"x_max":736,"o":"m 524 78 q 314 -12 428 -12 q 127 70 200 -12 q 54 306 54 153 q 141 550 54 460 q 356 640 228 640 q 522 592 425 640 q 514 907 522 849 l 511 926 l 422 953 l 419 989 q 603 1014 508 989 l 629 1001 q 626 510 626 828 q 629 146 626 192 q 641 88 632 100 q 668 71 650 76 q 736 60 697 63 l 732 19 q 581 -6 682 15 q 524 78 539 13 m 392 556 q 230 484 282 556 q 178 307 178 413 q 224 138 178 201 q 354 75 269 75 q 515 124 439 75 q 522 531 522 235 q 392 556 450 556 z "},"e":{"ha":638,"x_min":51,"x_max":594,"o":"m 469 444 q 433 540 469 508 q 353 571 397 571 q 240 519 288 571 q 178 393 193 468 l 465 404 q 469 444 469 425 m 349 -12 q 126 72 201 -12 q 51 295 51 156 q 134 537 51 435 q 383 639 217 639 q 531 579 468 639 q 594 401 594 519 l 547 344 q 416 346 539 346 q 169 336 293 346 l 169 324 q 222 134 169 197 q 367 71 275 71 q 560 115 458 71 l 576 74 q 349 -12 469 -12 z "},"f":{"ha":439,"x_min":32,"x_max":546,"o":"m 361 -4 q 197 0 294 0 q 32 -4 99 0 l 36 36 q 97 48 64 39 q 131 67 129 57 q 142 564 142 67 l 46 563 l 42 578 l 74 632 q 140 626 93 629 q 172 789 140 717 q 247 901 203 861 q 342 969 290 942 q 475 1014 425 1014 q 512 981 486 1014 q 546 917 538 949 l 525 890 q 406 917 465 917 q 246 628 246 917 l 426 629 l 433 613 l 390 558 q 246 564 343 563 q 260 67 246 178 q 299 47 261 57 q 365 36 338 38 l 361 -4 z "},"g":{"ha":681,"x_min":29,"x_max":674,"o":"m 603 689 q 640 656 614 689 q 674 592 665 624 l 653 565 q 593 578 628 578 q 528 563 558 578 q 576 406 576 503 q 513 240 576 308 q 324 171 449 171 q 263 175 292 171 q 211 83 211 108 q 301 51 211 51 l 406 51 q 668 -118 668 51 q 563 -289 668 -212 q 282 -365 458 -365 q 104 -331 179 -365 q 29 -235 29 -297 q 172 -31 29 -146 q 85 36 85 -11 q 210 185 85 83 q 69 408 69 229 q 134 569 69 500 q 316 638 199 638 q 492 596 433 638 q 543 656 508 622 q 603 689 578 689 m 146 -189 q 186 -276 146 -243 q 318 -310 226 -310 q 481 -252 410 -310 q 551 -129 551 -194 q 515 -61 551 -87 q 403 -35 479 -35 l 215 -35 q 146 -189 146 -112 m 325 581 q 255 562 285 581 q 211 514 225 543 q 188 396 188 458 q 219 281 188 333 q 319 228 250 228 q 402 258 369 228 q 445 319 435 288 q 457 386 456 351 q 325 581 457 581 z "},"h":{"ha":775,"x_min":24,"x_max":753,"o":"m 331 -4 q 178 0 264 0 q 25 -4 92 0 l 29 36 q 85 48 56 39 q 117 67 115 57 q 126 414 126 157 q 118 903 126 832 l 115 926 l 26 953 l 24 989 q 207 1014 113 989 l 233 1001 q 231 558 231 839 q 508 639 385 639 q 614 611 578 639 q 650 507 650 583 l 650 318 q 661 85 650 139 l 664 67 q 695 48 665 57 q 753 36 725 39 l 749 -4 q 596 0 682 0 q 443 -4 510 0 l 447 36 q 503 48 474 39 q 535 67 533 57 q 546 318 546 115 l 546 453 q 514 528 546 507 q 438 549 482 549 q 366 545 393 549 q 317 536 339 542 q 244 514 261 521 l 231 510 q 246 67 231 97 q 277 48 247 57 q 335 36 307 39 l 331 -4 z "},"i":{"ha":382,"x_min":31,"x_max":360,"o":"m 244 803 q 234 793 244 803 q 193 782 224 782 q 142 803 163 782 q 121 856 121 825 q 142 908 121 888 q 193 929 163 929 q 244 908 224 929 q 265 856 265 888 q 244 803 265 825 m 250 625 l 247 318 q 258 85 247 139 l 261 67 q 297 48 263 57 q 360 36 331 39 l 356 -4 q 193 0 289 0 q 31 -4 97 0 l 35 36 q 97 48 64 39 q 132 67 131 57 q 143 261 143 115 q 132 550 143 497 l 43 576 l 40 613 q 224 638 129 613 l 250 625 z "},"j":{"ha":374,"x_min":-50,"x_max":268,"o":"m 146 21 q 138 503 146 358 l 135 550 l 46 576 l 43 613 q 226 638 132 613 l 253 625 q 250 75 250 414 q 228 -110 250 -28 q 177 -237 207 -192 q 113 -314 147 -283 q 55 -355 78 -344 q 21 -365 32 -365 q -16 -333 10 -365 q -50 -268 -42 -300 l -29 -242 q 54 -268 14 -268 q 146 21 146 -268 m 247 803 q 237 793 247 803 q 196 782 226 782 q 144 803 165 782 q 124 856 124 825 q 144 908 124 888 q 196 929 165 929 q 247 908 226 929 q 268 856 268 888 q 247 803 268 825 z "},"k":{"ha":718,"x_min":25,"x_max":718,"o":"m 331 -4 q 178 0 264 0 q 25 -4 92 0 l 29 36 q 85 48 56 39 q 117 67 115 57 q 129 414 129 157 q 121 903 129 832 l 118 926 l 29 953 l 26 989 q 210 1014 115 989 l 236 1001 q 233 489 233 828 l 233 378 l 456 544 q 465 561 465 553 q 382 593 465 592 l 386 633 q 533 629 472 629 q 679 633 594 629 l 683 593 q 536 536 599 581 l 358 404 l 625 60 q 678 39 639 43 q 700 38 686 39 q 718 36 714 36 l 714 -4 q 535 -12 635 -4 l 278 346 l 235 314 q 246 67 239 156 q 277 48 247 57 q 335 36 307 39 l 331 -4 z "},"l":{"ha":378,"x_min":26,"x_max":353,"o":"m 243 1001 q 240 493 240 828 q 256 67 240 158 q 292 47 257 57 q 353 36 326 38 l 349 -4 q 188 0 282 0 q 26 -4 93 0 l 31 36 q 92 48 60 39 q 126 67 125 57 q 136 414 136 157 q 128 903 136 832 l 125 926 l 36 953 l 33 989 q 217 1014 122 989 l 243 1001 z "},"m":{"ha":1164,"x_min":32,"x_max":1140,"o":"m 638 318 q 647 85 638 139 l 651 67 q 683 48 653 57 q 740 36 713 39 l 736 -4 q 583 0 669 0 q 431 -4 497 0 l 435 36 q 491 48 461 39 q 522 67 521 57 q 533 318 533 115 l 533 453 q 501 528 533 507 q 425 549 469 549 q 356 545 381 549 q 311 536 331 542 q 239 510 285 529 l 239 318 q 250 85 239 146 l 254 67 q 285 48 256 57 q 343 36 315 39 l 339 -4 q 186 0 272 0 q 33 -4 100 0 l 38 36 q 94 48 64 39 q 125 67 124 57 q 135 261 135 115 q 124 550 135 497 l 35 576 l 32 613 q 215 638 121 613 l 242 625 q 240 558 240 590 q 503 639 394 639 q 632 557 611 639 q 896 639 778 639 q 1001 611 965 639 q 1038 507 1038 583 l 1038 318 q 1047 85 1038 139 l 1051 67 q 1083 48 1053 57 q 1140 36 1113 39 l 1136 -4 q 983 0 1069 0 q 831 -4 897 0 l 835 36 q 891 48 861 39 q 922 67 921 57 q 933 318 933 115 l 933 453 q 901 528 933 507 q 788 549 869 549 q 638 510 707 549 l 638 318 z "},"n":{"ha":778,"x_min":32,"x_max":754,"o":"m 240 510 l 239 318 q 250 85 239 139 l 253 67 q 284 48 254 57 q 342 36 314 39 l 338 -4 q 185 0 271 0 q 32 -4 99 0 l 36 36 q 92 48 63 39 q 124 67 122 57 q 135 261 135 115 q 124 550 135 497 l 35 576 l 32 613 q 215 638 121 613 l 242 625 l 242 558 q 510 639 396 639 q 615 611 579 639 q 651 507 651 583 l 651 318 q 661 85 651 139 l 665 67 q 697 48 667 57 q 754 36 726 39 l 750 -4 q 597 0 683 0 q 444 -4 511 0 l 449 36 q 505 48 475 39 q 536 67 535 57 q 547 318 547 115 l 547 453 q 515 528 547 507 q 407 549 483 549 q 240 510 331 549 z "},"o":{"ha":735,"x_min":54,"x_max":681,"o":"m 371 571 q 272 542 314 571 q 211 471 231 514 q 174 319 174 392 q 219 130 174 206 q 364 54 265 54 q 457 78 417 54 q 518 142 497 103 q 561 286 558 214 q 371 571 561 571 m 378 639 q 457 639 378 639 q 608 558 536 639 q 681 334 681 478 q 598 89 681 190 q 357 -12 515 -12 q 126 67 199 -12 q 54 290 54 147 q 137 536 54 433 q 378 639 219 639 z "},"p":{"ha":758,"x_min":7,"x_max":701,"o":"m 356 61 q 522 135 467 61 q 578 313 578 210 q 530 483 578 415 q 386 551 482 551 q 300 538 349 551 q 228 508 251 524 l 228 85 q 356 61 294 61 m 329 -365 q 168 -361 263 -361 q 7 -365 74 -361 l 11 -325 q 107 -299 104 -317 q 124 39 124 -219 q 115 526 124 456 l 113 550 l 24 576 l 21 613 q 203 638 108 613 l 229 625 l 229 557 q 450 639 338 639 q 632 564 563 639 q 701 328 701 489 q 614 78 701 168 q 400 -12 526 -12 q 228 32 308 -12 q 236 -299 229 -279 q 333 -325 239 -317 l 329 -365 z "},"q":{"ha":744,"x_min":57,"x_max":732,"o":"m 397 564 q 239 482 297 564 q 181 300 181 400 q 227 135 181 200 q 356 69 274 69 q 526 113 439 69 q 514 540 526 433 q 397 564 453 564 m 631 636 q 628 131 628 468 q 643 -299 628 -207 q 732 -325 646 -317 l 728 -365 q 571 -361 661 -361 q 414 -365 481 -361 l 418 -325 q 514 -299 511 -317 q 525 61 524 -226 q 415 3 464 19 q 304 -14 367 -14 q 124 76 190 -14 q 57 304 57 167 q 148 541 57 442 q 369 640 239 640 q 546 597 469 640 l 604 649 l 631 636 z "},"r":{"ha":524,"x_min":36,"x_max":514,"o":"m 443 647 q 480 615 454 647 q 514 550 506 582 l 493 524 q 389 543 443 543 q 290 498 335 543 q 246 353 246 453 q 258 68 247 108 q 298 48 260 57 q 378 36 336 39 l 374 -4 q 205 0 307 0 q 36 -4 103 0 l 40 36 q 99 48 68 39 q 131 67 129 57 q 142 261 142 115 q 131 550 142 497 l 42 576 l 39 613 q 222 638 128 613 l 249 625 q 246 511 246 604 q 348 613 286 578 q 443 647 410 647 z "},"s":{"ha":531,"x_min":56,"x_max":486,"o":"m 431 614 l 450 604 q 458 467 450 514 l 422 454 q 372 553 404 525 q 289 581 339 581 q 210 554 239 581 q 181 492 181 528 q 253 389 181 429 l 394 311 q 486 163 486 260 q 430 40 486 92 q 269 -12 374 -12 q 56 22 165 -12 q 72 182 72 119 l 108 194 q 127 126 121 144 q 149 82 133 108 q 190 47 165 56 q 264 39 215 39 q 344 67 313 39 q 376 133 376 94 q 311 228 376 192 l 161 311 q 69 460 69 360 q 124 585 69 531 q 275 639 178 639 q 431 614 372 639 z "},"t":{"ha":454,"x_min":32,"x_max":449,"o":"m 271 -12 q 126 126 126 -12 q 128 351 128 249 q 125 564 128 453 l 36 563 l 32 578 l 64 632 q 122 626 83 628 l 117 754 l 208 836 l 235 824 q 232 628 232 721 l 436 629 l 443 613 l 393 557 q 232 564 346 563 l 232 378 q 236 129 232 204 q 310 67 240 67 q 432 99 365 67 l 449 53 q 271 -12 350 -12 z "},"u":{"ha":764,"x_min":24,"x_max":742,"o":"m 260 -12 q 118 132 118 -12 l 118 318 q 108 550 118 504 l 26 576 l 24 613 q 200 638 106 613 l 226 625 q 222 174 222 376 q 335 81 222 81 q 436 97 382 81 q 522 132 490 113 q 528 308 528 207 q 517 550 528 497 l 429 576 l 426 613 q 610 638 515 613 l 636 625 q 632 281 632 521 l 636 118 q 655 81 636 94 q 692 65 674 68 q 742 60 710 61 l 738 19 q 586 -6 688 15 q 529 78 544 13 q 260 -12 396 -12 z "},"v":{"ha":665,"x_min":3,"x_max":669,"o":"m 358 94 q 503 546 506 546 q 504 553 504 549 q 428 593 504 583 l 424 633 q 524 629 471 629 l 665 633 l 669 593 q 582 542 599 583 q 388 0 503 358 l 288 -12 q 114 481 175 335 l 92 536 q 7 593 74 582 l 3 633 q 150 629 99 629 l 294 633 l 299 593 q 236 576 257 589 q 215 551 215 564 q 242 467 215 550 q 358 94 268 383 z "},"w":{"ha":1007,"x_min":4,"x_max":1010,"o":"m 844 550 q 757 593 844 582 l 753 633 q 864 629 811 629 l 1006 633 l 1010 593 q 922 542 939 583 l 761 0 l 658 -12 l 506 388 l 358 0 l 254 -12 l 93 536 q 8 593 81 582 l 4 633 q 151 629 100 629 l 307 633 l 311 593 q 225 563 246 585 q 218 549 218 554 q 331 81 218 543 l 517 625 l 547 625 l 733 81 q 844 550 844 542 z "},"x":{"ha":689,"x_min":10,"x_max":681,"o":"m 183 64 q 269 36 183 36 l 261 -4 q 144 0 197 0 l 10 -4 l 14 36 q 67 46 50 36 q 101 75 85 56 l 288 308 l 118 554 q 38 593 92 593 l 33 633 q 196 629 144 629 l 314 633 l 318 593 q 240 565 240 593 q 365 382 240 558 q 493 564 493 554 q 422 593 493 593 l 418 633 q 539 629 486 629 l 653 633 l 657 593 q 572 546 607 589 l 404 328 l 586 79 q 681 36 615 36 l 676 -4 q 514 0 565 0 l 381 -4 l 385 36 q 458 65 458 36 q 325 254 458 75 q 183 64 183 71 z "},"y":{"ha":669,"x_min":-1,"x_max":676,"o":"m 294 593 q 232 576 253 589 q 211 556 211 564 q 358 94 211 549 q 511 553 511 531 q 435 593 511 583 l 431 633 q 531 629 478 629 l 672 633 l 676 593 q 589 542 606 583 q 388 0 529 356 q 183 -339 281 -271 q 141 -362 156 -358 q 113 -365 126 -365 q 73 -333 99 -365 q 39 -268 47 -300 l 60 -242 q 122 -254 86 -254 q 322 0 222 -254 l 274 29 q 108 492 167 360 l 88 536 q 3 593 69 582 l -1 633 q 146 629 94 629 l 290 633 l 294 593 z "},"z":{"ha":617,"x_min":36,"x_max":582,"o":"m 340 569 q 270 567 310 569 q 215 563 231 565 q 178 554 200 561 q 149 540 156 547 q 131 519 142 533 q 114 489 119 504 l 101 450 l 65 463 q 78 614 78 540 l 78 632 q 553 625 164 625 l 574 586 l 181 63 q 447 87 376 63 q 546 204 517 111 l 582 192 q 553 0 561 126 l 64 0 l 36 42 l 435 569 l 340 569 z "},"{":{"ha":490,"x_min":83,"x_max":421,"o":"m 83 365 l 83 413 q 169 460 143 413 q 179 496 179 479 q 145 689 179 513 q 111 917 111 865 q 313 981 111 974 q 421 982 356 982 l 417 932 q 290 917 353 931 q 228 882 228 904 q 271 628 271 738 q 255 465 271 518 q 190 389 239 411 q 255 313 239 367 q 271 188 271 260 q 239 -64 271 49 l 228 -104 q 290 -140 228 -126 q 417 -154 353 -153 l 421 -204 q 138 -175 193 -204 q 111 -139 111 -161 q 145 89 111 -87 q 179 282 179 265 q 169 318 179 299 q 147 346 158 338 q 118 358 135 354 q 83 365 97 365 z "},"|":{"ha":401,"x_min":156,"x_max":246,"o":"m 156 -194 l 156 974 l 246 974 l 246 -194 l 156 -194 z "},"}":{"ha":490,"x_min":69,"x_max":407,"o":"m 407 413 l 407 365 q 322 318 347 365 q 311 282 311 299 q 345 89 311 265 q 379 -139 379 -87 q 178 -203 379 -196 q 69 -204 135 -204 l 74 -154 q 200 -140 138 -153 q 263 -104 263 -126 q 219 150 219 40 q 235 313 219 260 q 300 389 251 367 q 235 465 251 411 q 219 590 219 518 q 253 842 219 718 l 263 882 q 200 917 263 904 q 74 932 138 931 l 69 982 q 353 953 297 982 q 379 917 379 939 q 345 689 379 865 q 311 496 311 513 q 322 460 311 479 q 344 432 332 440 q 372 419 356 424 q 407 413 393 413 z "},"~":{"ha":726,"x_min":35,"x_max":693,"o":"m 529 335 q 363 380 474 335 q 192 425 253 425 q 78 381 131 425 l 35 424 q 199 510 110 510 q 365 465 254 510 q 535 419 475 419 q 650 464 594 419 l 693 421 q 529 335 618 335 z "},"¡":{"ha":328,"x_min":89,"x_max":239,"o":"m 112 619 q 123 630 112 619 q 164 640 133 640 q 216 619 194 640 q 238 565 238 597 q 216 512 238 533 q 164 490 194 490 q 112 512 133 490 q 90 565 90 533 q 112 619 90 597 m 89 -332 l 135 394 l 188 407 l 239 -294 q 234 -304 239 -299 q 192 -320 229 -310 q 89 -332 154 -331 z "},"¢":{"ha":726,"x_min":74,"x_max":611,"o":"m 419 768 q 478 759 440 767 q 537 751 515 751 q 593 758 558 751 l 593 740 q 608 568 593 660 l 575 553 q 411 707 535 697 l 350 213 q 418 204 381 204 q 592 246 500 204 l 611 206 q 368 119 503 119 q 339 121 349 119 l 322 -12 l 260 -12 l 278 131 q 126 241 179 158 q 74 440 74 324 q 149 656 74 556 q 357 768 225 756 l 372 890 l 435 890 l 419 768 m 193 456 q 290 239 193 307 l 349 704 q 230 619 267 689 q 193 456 193 549 z "},"£":{"ha":726,"x_min":43,"x_max":651,"o":"m 288 621 l 292 474 l 292 461 l 508 461 l 500 401 l 289 401 q 178 69 274 161 q 349 58 285 58 q 529 93 471 58 q 619 210 588 128 l 651 194 q 622 0 631 129 l 64 0 l 43 33 l 106 75 q 162 228 142 136 q 186 401 182 321 l 56 401 l 64 461 l 186 461 q 175 588 185 514 q 165 681 165 661 q 411 890 165 890 q 492 881 447 890 q 558 872 538 872 q 614 879 579 872 q 629 689 614 778 l 596 674 q 528 796 571 763 q 411 829 485 829 q 313 776 338 829 q 288 621 288 722 z "},"¤":{"ha":726,"x_min":46,"x_max":679,"o":"m 160 296 q 110 447 110 364 q 160 600 110 531 l 49 688 l 119 765 l 211 650 q 362 700 282 700 q 514 650 442 700 l 603 763 l 679 689 l 565 599 q 615 447 615 525 q 565 296 615 369 l 676 210 l 606 132 l 514 246 q 361 196 444 196 q 210 246 278 196 l 124 135 l 46 206 l 160 296 m 363 608 q 328 608 363 608 q 249 562 294 608 q 203 447 203 515 q 249 333 203 379 q 363 288 294 288 q 476 333 431 288 q 522 447 522 379 q 476 562 522 515 q 363 608 431 608 z "},"¥":{"ha":726,"x_min":31,"x_max":703,"o":"m 489 890 l 592 886 q 699 890 628 886 l 703 850 q 652 832 668 844 q 622 790 636 819 l 504 526 l 654 526 l 646 467 l 476 467 l 444 394 l 654 394 l 646 335 l 428 335 l 435 96 q 461 60 438 71 q 553 36 485 50 l 549 -4 q 363 0 461 0 q 176 -4 264 0 l 172 36 q 268 61 243 50 q 296 96 293 72 q 301 335 300 151 l 75 335 l 83 394 l 279 394 l 250 467 l 75 467 l 83 526 l 226 526 l 121 792 q 31 850 104 835 l 35 890 q 160 886 101 886 q 286 890 219 886 l 290 850 q 225 811 225 838 q 283 647 225 800 q 376 410 342 494 l 546 790 q 549 808 549 796 q 485 850 549 831 l 489 890 z "},"¦":{"ha":401,"x_min":156,"x_max":246,"o":"m 156 -194 l 156 271 l 246 271 l 246 -194 l 156 -194 m 156 508 l 156 974 l 246 974 l 246 508 l 156 508 z "},"§":{"ha":696,"x_min":10,"x_max":686,"o":"m 686 910 q 640 811 686 840 q 553 825 604 825 q 456 801 503 825 q 383 738 410 776 q 339 642 356 700 q 314 393 314 546 l 314 242 q 267 -44 314 31 q 133 -112 224 -112 q 100 -110 122 -112 q 209 22 190 -62 q 228 369 228 106 q 236 533 228 461 q 272 683 244 604 q 344 817 299 761 q 469 917 389 872 q 658 982 549 963 q 686 910 686 954 m 10 -246 q 56 -147 10 -176 q 142 -161 92 -161 q 240 -137 193 -161 q 313 -74 286 -112 q 356 22 340 -36 q 382 271 382 118 l 382 422 q 428 708 382 633 q 563 776 472 776 q 596 774 574 776 q 487 642 506 726 q 468 294 468 558 q 460 131 468 203 q 424 -19 451 60 q 352 -153 397 -97 q 227 -253 307 -208 q 38 -318 147 -299 q 10 -246 10 -290 z "},"¨":{"ha":644,"x_min":122,"x_max":517,"o":"m 496 803 q 485 793 496 803 q 444 782 475 782 q 393 803 414 782 q 372 856 372 825 q 393 908 372 888 q 444 929 414 929 q 496 908 475 929 q 517 856 517 888 q 496 803 517 825 m 246 803 q 235 793 246 803 q 194 782 225 782 q 143 803 164 782 q 122 856 122 825 q 143 908 122 888 q 194 929 164 929 q 246 908 225 929 q 267 856 267 888 q 246 803 267 825 z "},"©":{"ha":833,"x_min":25,"x_max":807,"o":"m 425 904 l 529 894 q 572 901 556 894 q 579 792 572 831 l 550 779 q 415 871 522 871 q 304 821 350 871 q 258 681 258 771 q 298 531 258 592 q 419 471 338 471 q 568 567 538 471 l 599 554 q 583 467 589 522 q 417 433 492 433 q 242 488 310 433 q 175 650 175 543 q 238 831 175 757 q 425 904 300 904 m 176 905 q 126 855 176 905 q 76 665 76 806 q 176 426 76 525 q 415 326 275 326 q 655 426 556 326 q 754 665 754 525 q 655 905 754 806 q 415 1004 556 1004 q 176 905 275 1004 m 416 274 q 335 274 416 274 q 140 388 254 274 q 25 665 25 503 q 140 941 25 826 q 416 1056 254 1056 q 692 941 578 1056 q 807 665 807 826 q 692 388 807 503 q 416 274 578 274 z "},"ª":{"ha":397,"x_min":17,"x_max":392,"o":"m 51 440 q 212 435 117 435 q 381 440 307 435 l 386 424 l 351 369 q 191 374 286 374 q 22 368 96 374 l 17 386 l 51 440 m 114 604 q 159 561 114 561 q 246 586 204 561 l 246 689 q 149 662 183 688 q 114 604 114 636 m 319 815 l 325 592 q 350 556 325 556 q 379 564 363 556 l 392 533 q 314 500 351 500 q 250 553 263 500 q 131 500 178 500 q 29 586 29 500 q 85 681 29 639 q 246 736 140 722 l 246 811 q 188 857 246 857 q 138 840 156 857 q 121 804 121 824 q 125 772 121 785 l 99 761 q 63 790 79 771 q 46 817 46 808 q 65 848 46 826 q 126 890 83 869 q 218 911 168 911 q 319 815 319 911 z "},"«":{"ha":718,"x_min":125,"x_max":579,"o":"m 333 289 q 328 310 328 300 q 333 331 328 319 l 551 540 l 579 517 l 435 310 l 579 103 l 551 79 l 333 289 m 131 289 q 125 310 125 300 q 131 331 125 319 l 349 540 l 376 517 l 232 310 l 376 103 l 349 79 l 131 289 z "},"¬":{"ha":726,"x_min":33,"x_max":693,"o":"m 33 379 l 33 464 l 693 464 l 693 92 l 608 92 l 608 379 l 33 379 z "},"®":{"ha":833,"x_min":25,"x_max":807,"o":"m 493 790 q 390 867 493 867 q 358 854 361 867 q 350 682 350 817 q 443 689 422 682 q 493 790 493 718 m 414 439 q 314 442 356 442 q 214 439 272 442 l 211 461 q 272 489 269 472 q 278 671 278 529 l 272 851 q 260 867 271 863 q 217 878 249 872 l 218 900 q 315 899 247 899 l 429 899 q 531 869 496 899 q 565 798 565 839 q 541 723 565 757 q 474 671 517 689 q 525 582 485 653 q 589 474 565 511 q 643 461 604 467 l 642 439 l 524 435 l 408 657 q 350 656 389 656 q 358 489 350 531 q 371 473 360 478 q 415 461 382 468 l 414 439 m 176 905 q 126 855 176 905 q 76 665 76 806 q 176 426 76 525 q 415 326 275 326 q 655 426 556 326 q 754 665 754 525 q 655 905 754 806 q 415 1004 556 1004 q 176 905 275 1004 m 416 274 q 335 274 416 274 q 140 388 254 274 q 25 665 25 503 q 140 941 25 826 q 416 1056 254 1056 q 692 941 578 1056 q 807 665 807 826 q 692 388 807 503 q 416 274 578 274 z "},"¯":{"ha":500,"x_min":25,"x_max":472,"o":"m 418 794 q 227 800 333 800 q 36 794 121 800 l 25 817 l 79 881 q 289 874 194 874 q 461 879 383 874 l 472 858 l 418 794 z "},"°":{"ha":390,"x_min":14,"x_max":376,"o":"m 67 642 q 40 668 67 642 q 14 769 14 694 q 67 898 14 844 q 194 951 119 951 q 323 898 269 951 q 376 769 376 844 q 323 642 376 694 q 194 589 269 589 q 67 642 119 589 m 108 858 q 90 839 108 858 q 72 769 72 821 q 108 683 72 718 q 194 647 143 647 q 283 683 246 647 q 319 769 319 718 q 283 858 319 821 q 194 894 246 894 q 108 858 143 894 z "},"±":{"ha":726,"x_min":33,"x_max":693,"o":"m 321 751 l 406 751 l 406 464 l 693 464 l 693 379 l 406 379 l 406 92 l 321 92 l 321 379 l 33 379 l 33 464 l 321 464 l 321 751 m 33 -83 l 33 1 l 693 1 l 693 -83 l 33 -83 z "},"²":{"ha":444,"x_min":25,"x_max":419,"o":"m 216 932 q 257 932 216 932 q 347 892 297 932 q 397 788 397 853 q 361 659 397 722 q 267 542 325 596 q 132 431 197 479 l 135 426 q 313 442 268 426 q 378 519 358 457 l 419 510 q 401 371 406 454 l 35 371 l 25 413 q 113 488 63 440 q 198 578 163 536 q 262 673 233 619 q 290 769 290 726 q 192 864 290 864 q 72 832 129 864 l 51 865 q 216 932 135 932 z "},"³":{"ha":444,"x_min":42,"x_max":401,"o":"m 401 549 q 325 402 401 469 q 131 335 249 335 q 42 343 89 335 l 44 394 q 110 388 74 388 q 245 431 196 388 q 294 523 294 474 q 262 603 294 572 q 182 633 229 633 q 108 625 135 633 l 111 675 q 229 726 189 686 q 269 799 269 765 q 203 867 269 867 q 88 832 146 867 l 68 867 q 239 932 147 932 q 336 903 300 932 q 372 831 372 874 q 338 747 372 788 q 240 679 304 706 q 360 640 319 676 q 401 549 401 603 z "},"´":{"ha":396,"x_min":97,"x_max":379,"o":"m 379 944 l 139 719 l 97 726 l 283 1003 q 347 985 318 1003 q 379 944 376 968 z "},"µ":{"ha":764,"x_min":24,"x_max":742,"o":"m 301 -12 q 186 51 207 -12 l 181 51 l 181 -29 q 281 -244 181 -244 q 300 -262 300 -244 q 276 -328 300 -296 q 232 -360 253 -360 q 197 -351 211 -360 q 167 -315 182 -343 q 142 -237 151 -286 q 118 85 118 -119 q 108 550 118 290 l 26 576 l 24 613 q 200 638 106 613 l 226 625 q 222 192 222 394 q 249 102 222 124 q 328 81 276 81 q 435 97 381 81 q 522 132 490 113 q 528 308 528 207 q 517 550 528 497 l 429 576 l 426 613 q 610 638 515 613 l 636 625 q 632 281 632 521 l 636 128 q 685 61 638 61 q 738 78 708 61 l 742 36 q 626 -14 688 -14 q 529 78 543 -14 q 426 15 493 43 q 301 -12 360 -12 z "},"¶":{"ha":728,"x_min":69,"x_max":649,"o":"m 222 -239 q 231 -190 222 -219 q 250 -147 240 -161 q 325 -161 288 -161 q 456 -79 407 -161 q 504 174 504 3 q 497 283 504 235 q 311 239 408 239 q 142 305 214 239 q 69 483 69 371 q 144 674 69 596 q 639 825 293 825 l 649 774 q 547 654 547 774 q 571 415 547 597 q 594 139 594 232 q 561 -52 594 46 q 476 -206 528 -150 q 258 -318 372 -318 q 222 -239 222 -289 z "},"·":{"ha":229,"x_min":42,"x_max":188,"o":"m 166 312 q 155 301 166 312 q 114 290 144 290 q 63 312 83 290 q 42 365 42 333 q 63 418 42 397 q 114 439 83 439 q 166 418 144 439 q 188 365 188 397 q 166 312 188 333 z "},"¸":{"ha":615,"x_min":192,"x_max":433,"o":"m 343 15 q 325 -34 325 -14 q 379 -97 325 -54 q 433 -174 433 -139 q 378 -271 433 -222 q 214 -360 322 -319 q 192 -309 192 -342 q 224 -250 192 -276 q 358 -201 358 -243 q 312 -144 358 -181 q 265 -72 265 -108 q 307 15 265 -36 l 343 15 z "},"¹":{"ha":444,"x_min":82,"x_max":363,"o":"m 360 368 q 234 371 288 371 q 89 368 181 371 l 86 404 q 181 438 178 418 q 186 608 186 485 q 181 857 186 807 l 85 875 l 82 915 q 269 932 200 915 l 289 924 q 286 656 286 835 l 292 438 q 308 417 293 424 q 363 404 324 411 l 360 368 z "},"º":{"ha":460,"x_min":29,"x_max":428,"o":"m 71 440 q 231 435 136 435 q 400 440 326 435 l 406 424 l 371 369 q 210 374 306 374 q 42 368 115 374 l 36 386 l 71 440 m 231 865 q 158 834 186 865 q 124 772 131 803 q 117 691 117 740 q 142 594 117 642 q 226 547 168 547 q 312 593 285 547 q 340 689 339 639 q 231 865 340 865 m 235 911 q 285 911 235 911 q 382 860 336 911 q 428 719 428 810 q 376 564 428 628 q 222 500 324 500 q 75 550 121 500 q 29 690 29 600 q 81 846 29 781 q 235 911 133 911 z "},"»":{"ha":718,"x_min":139,"x_max":593,"o":"m 385 331 q 390 310 390 319 q 385 289 390 300 l 167 79 l 139 103 l 283 310 l 139 517 l 167 540 l 385 331 m 588 331 q 593 310 593 319 q 588 289 593 300 l 369 79 l 342 103 l 486 310 l 342 517 l 369 540 l 588 331 z "},"¼":{"ha":1042,"x_min":82,"x_max":997,"o":"m 222 -1 l 794 943 l 861 943 l 289 -1 l 222 -1 m 360 368 q 234 371 288 371 q 89 368 181 371 l 86 404 q 181 438 178 418 q 186 608 186 485 q 181 857 186 807 l 85 875 l 82 915 q 269 932 200 915 l 289 924 q 286 656 286 835 l 292 438 q 308 417 293 424 q 363 404 324 411 l 360 368 m 814 321 l 813 356 q 910 375 821 374 q 908 321 908 356 q 910 221 908 321 l 992 221 l 997 206 l 965 157 q 911 160 947 158 l 915 68 q 986 33 918 46 l 983 -3 q 851 1 928 1 q 718 -3 775 1 l 715 33 q 808 68 806 49 q 813 161 810 92 l 593 161 l 579 204 l 815 596 l 913 588 l 667 218 l 813 218 l 814 321 z "},"½":{"ha":1042,"x_min":82,"x_max":974,"o":"m 196 -1 l 768 943 l 835 943 l 263 -1 l 196 -1 m 360 368 q 234 371 288 371 q 89 368 181 371 l 86 404 q 181 438 178 418 q 186 608 186 485 q 181 857 186 807 l 85 875 l 82 915 q 269 932 200 915 l 289 924 q 286 656 286 835 l 292 438 q 308 417 293 424 q 363 404 324 411 l 360 368 m 770 561 q 811 561 770 561 q 901 522 851 561 q 951 417 951 482 q 915 288 951 351 q 819 171 879 225 q 686 60 751 108 l 689 56 q 867 71 822 56 q 932 149 913 86 l 974 139 q 956 0 960 83 l 589 0 l 579 42 q 667 117 617 69 q 752 207 717 165 q 816 302 788 249 q 844 399 844 356 q 746 493 844 493 q 626 461 683 493 l 606 494 q 770 561 689 561 z "},"¾":{"ha":1042,"x_min":60,"x_max":1017,"o":"m 250 -1 l 822 943 l 889 943 l 317 -1 l 250 -1 m 419 549 q 343 402 419 469 q 149 335 267 335 q 60 343 108 335 l 63 394 q 128 388 92 388 q 263 431 214 388 q 313 523 313 474 q 280 603 313 572 q 200 633 247 633 q 126 625 153 633 l 129 675 q 247 726 207 686 q 288 799 288 765 q 221 867 288 867 q 106 832 164 867 l 86 867 q 257 932 165 932 q 354 903 318 932 q 390 831 390 874 q 356 747 390 788 q 258 679 322 706 q 378 640 338 676 q 419 549 419 603 m 833 321 l 832 356 q 929 375 840 374 q 928 321 928 356 l 929 221 l 1011 221 l 1017 206 l 985 157 q 931 160 967 158 l 935 68 q 1006 33 938 46 l 1003 -3 q 871 1 947 1 q 738 -3 794 1 l 735 33 q 828 68 825 49 q 832 161 829 92 l 613 161 l 599 204 l 835 596 l 932 588 l 686 218 l 832 218 l 833 321 z "},"¿":{"ha":476,"x_min":69,"x_max":407,"o":"m 219 619 q 230 630 219 619 q 271 640 240 640 q 323 619 301 640 q 344 565 344 597 q 323 512 344 533 q 271 490 301 490 q 219 512 240 490 q 197 565 197 533 q 219 619 197 597 m 407 -264 q 376 -335 407 -311 q 69 -25 69 -199 q 139 104 69 44 q 194 156 167 129 q 264 283 264 217 q 243 394 264 349 l 296 407 q 369 213 369 297 q 333 136 369 175 q 252 70 296 97 q 172 6 208 43 q 135 -64 135 -31 q 199 -147 135 -114 q 382 -183 264 -181 q 399 -221 392 -194 q 407 -264 407 -247 z "},"À":{"ha":964,"x_min":0,"x_max":964,"o":"m 347 -4 q 176 0 260 0 q 4 -4 92 0 l 0 36 q 90 63 64 49 q 125 104 117 78 l 401 950 l 522 964 l 846 96 q 878 60 856 72 q 964 36 901 49 l 960 -4 q 769 0 872 0 q 579 -4 667 0 l 575 36 q 689 72 674 56 q 697 87 697 79 q 621 336 697 94 l 307 336 l 232 89 q 260 60 232 71 q 351 36 288 49 l 347 -4 m 458 819 l 453 819 q 428 740 443 786 q 385 595 414 693 q 326 400 356 497 l 599 400 l 458 819 m 503 1038 l 263 1263 q 294 1303 265 1286 q 358 1321 324 1321 l 544 1044 l 503 1038 z "},"Á":{"ha":964,"x_min":0,"x_max":964,"o":"m 347 -4 q 176 0 260 0 q 4 -4 92 0 l 0 36 q 90 63 64 49 q 125 104 117 78 l 401 950 l 522 964 l 846 96 q 878 60 856 72 q 964 36 901 49 l 960 -4 q 769 0 872 0 q 579 -4 667 0 l 575 36 q 689 72 674 56 q 697 87 697 79 q 621 336 697 94 l 307 336 l 232 89 q 260 60 232 71 q 351 36 288 49 l 347 -4 m 458 819 l 453 819 q 428 740 443 786 q 385 595 414 693 q 326 400 356 497 l 599 400 l 458 819 m 664 1263 l 424 1038 l 382 1044 l 568 1321 q 632 1303 603 1321 q 664 1263 661 1286 z "},"Â":{"ha":964,"x_min":0,"x_max":964,"o":"m 347 -4 q 176 0 260 0 q 4 -4 92 0 l 0 36 q 90 63 64 49 q 125 104 117 78 l 401 950 l 522 964 l 846 96 q 878 60 856 72 q 964 36 901 49 l 960 -4 q 769 0 872 0 q 579 -4 667 0 l 575 36 q 689 72 674 56 q 697 87 697 79 q 621 336 697 94 l 307 336 l 232 89 q 260 60 232 71 q 351 36 288 49 l 347 -4 m 458 819 l 453 819 q 428 740 443 786 q 385 595 414 693 q 326 400 356 497 l 599 400 l 458 819 m 456 1315 q 480 1319 464 1319 q 507 1314 496 1319 l 638 1044 l 596 1038 l 481 1182 l 367 1038 l 325 1044 l 456 1315 z "},"Ã":{"ha":964,"x_min":0,"x_max":964,"o":"m 347 -4 q 176 0 260 0 q 4 -4 92 0 l 0 36 q 89 63 63 49 q 125 104 115 78 l 401 950 l 522 964 l 846 96 q 878 60 856 72 q 964 36 901 49 l 960 -4 q 769 0 872 0 q 579 -4 667 0 l 575 36 q 689 72 674 56 q 697 87 697 79 q 621 336 697 94 l 307 336 l 232 89 q 260 60 232 71 q 351 36 288 49 l 347 -4 m 458 819 l 453 819 q 428 740 443 786 q 385 595 414 693 q 326 400 356 497 l 599 400 l 458 819 m 585 1089 q 485 1116 553 1089 q 383 1143 417 1143 q 290 1090 328 1143 l 254 1101 q 379 1242 296 1242 q 478 1215 410 1242 q 581 1188 547 1188 q 674 1240 633 1188 l 710 1229 q 585 1089 667 1089 z "},"Ä":{"ha":964,"x_min":0,"x_max":964,"o":"m 347 -4 q 176 0 260 0 q 4 -4 92 0 l 0 36 q 90 63 64 49 q 125 104 117 78 l 401 950 l 522 964 l 846 96 q 878 60 856 72 q 964 36 901 49 l 960 -4 q 769 0 872 0 q 579 -4 667 0 l 575 36 q 689 72 674 56 q 697 87 697 79 q 621 336 697 94 l 307 336 l 232 89 q 260 60 232 71 q 351 36 288 49 l 347 -4 m 458 819 l 453 819 q 428 740 443 786 q 385 595 414 693 q 326 400 356 497 l 599 400 l 458 819 m 658 1122 q 648 1111 658 1122 q 607 1100 638 1100 q 556 1122 576 1100 q 535 1174 535 1143 q 556 1226 535 1206 q 607 1247 576 1247 q 658 1226 638 1247 q 679 1174 679 1206 q 658 1122 679 1143 m 408 1122 q 398 1111 408 1122 q 357 1100 388 1100 q 306 1122 326 1100 q 285 1174 285 1143 q 306 1226 285 1206 q 357 1247 326 1247 q 408 1226 388 1247 q 429 1174 429 1206 q 408 1122 429 1143 z "},"Å":{"ha":964,"x_min":0,"x_max":964,"o":"m 347 -4 q 176 0 260 0 q 4 -4 92 0 l 0 36 q 90 63 64 49 q 125 104 117 78 l 401 950 l 522 964 l 846 96 q 878 60 856 72 q 964 36 901 49 l 960 -4 q 769 0 872 0 q 579 -4 667 0 l 575 36 q 689 72 674 56 q 697 87 697 79 q 621 336 697 94 l 307 336 l 232 89 q 260 60 232 71 q 351 36 288 49 l 347 -4 m 458 819 l 453 819 q 428 740 443 786 q 385 595 414 693 q 326 400 356 497 l 599 400 l 458 819 m 481 1075 q 549 1178 549 1075 q 478 1282 549 1282 q 408 1185 408 1282 q 426 1107 408 1139 q 481 1075 444 1075 m 481 1033 q 451 1033 481 1033 q 378 1076 421 1033 q 336 1178 336 1118 q 379 1281 336 1239 q 482 1324 422 1324 q 584 1281 542 1324 q 626 1178 626 1239 q 584 1075 626 1117 q 481 1033 542 1033 z "},"Æ":{"ha":1343,"x_min":0,"x_max":1296,"o":"m 382 454 q 233 91 233 111 q 261 60 233 71 q 353 36 289 49 l 349 -4 q 176 0 261 0 q 4 -4 92 0 l 0 36 q 88 63 61 49 q 125 104 114 78 l 515 951 l 817 951 q 1236 960 1036 951 l 1236 944 q 1253 735 1236 835 l 1215 718 q 1176 813 1194 789 q 1148 850 1158 838 q 1115 872 1138 863 q 1076 885 1092 881 q 1025 892 1060 889 q 891 894 965 894 q 813 863 817 894 q 797 510 799 772 q 1009 518 974 510 q 1055 549 1044 526 q 1079 643 1065 571 l 1128 638 q 1117 483 1117 557 q 1128 328 1117 410 l 1079 321 q 1055 415 1065 393 q 1009 446 1044 438 q 797 454 974 454 q 808 121 797 211 l 813 94 q 953 50 825 50 q 1055 55 1017 50 q 1136 78 1093 60 q 1258 238 1217 110 l 1296 221 q 1263 0 1271 144 l 707 0 q 540 -4 628 0 l 536 36 q 632 61 607 50 q 660 96 657 72 q 672 454 671 174 l 382 454 m 581 901 l 407 510 l 672 510 l 665 860 q 645 893 663 885 q 581 901 628 901 z "},"Ç":{"ha":972,"x_min":67,"x_max":928,"o":"m 565 51 q 779 105 696 51 q 890 250 863 158 l 928 233 q 896 47 913 183 q 561 -17 725 -17 q 499 -14 538 -17 q 496 -37 496 -21 q 550 -97 496 -54 q 604 -174 604 -139 q 549 -271 604 -222 q 385 -360 493 -319 q 363 -309 363 -342 q 394 -250 363 -276 q 529 -201 529 -243 q 483 -144 529 -181 q 436 -76 436 -108 q 458 -10 436 -43 q 171 138 275 17 q 67 467 67 260 q 199 819 67 674 q 560 964 331 964 q 703 953 624 964 q 811 943 782 943 q 874 951 840 943 l 874 931 q 890 735 874 829 l 853 718 q 558 900 797 900 q 319 801 419 900 q 241 672 269 753 q 213 499 213 592 q 232 332 213 407 q 292 193 251 257 q 403 90 332 129 q 565 51 474 51 z "},"È":{"ha":844,"x_min":38,"x_max":797,"o":"m 299 454 q 310 121 299 192 l 314 94 q 454 50 326 50 q 556 55 518 50 q 638 78 594 60 q 760 238 718 110 l 797 221 q 764 0 772 144 l 208 0 q 42 -4 129 0 l 38 36 q 133 61 108 50 q 161 96 158 72 q 174 392 174 176 q 165 828 174 742 l 163 856 q 138 891 160 881 q 49 915 115 901 l 53 956 q 382 951 140 951 q 738 960 624 951 l 738 939 q 754 735 738 829 l 717 718 q 631 863 681 832 q 442 893 581 893 q 349 888 379 893 q 314 863 318 882 q 299 510 300 772 q 510 518 475 510 q 556 549 546 526 q 581 643 567 571 l 629 638 q 618 483 618 557 q 629 328 618 410 l 581 321 q 556 415 567 393 q 510 446 546 438 q 299 454 475 454 m 474 1038 l 233 1263 q 265 1303 236 1286 q 329 1321 294 1321 l 515 1044 l 474 1038 z "},"É":{"ha":844,"x_min":38,"x_max":797,"o":"m 299 454 q 310 121 299 192 l 314 94 q 454 50 326 50 q 556 55 518 50 q 638 78 594 60 q 760 238 718 110 l 797 221 q 764 0 772 144 l 208 0 q 42 -4 129 0 l 38 36 q 133 61 108 50 q 161 96 158 72 q 174 392 174 176 q 165 828 174 742 l 163 856 q 138 891 160 881 q 49 915 115 901 l 53 956 q 382 951 140 951 q 738 960 624 951 l 738 939 q 754 735 738 829 l 717 718 q 631 863 681 832 q 442 893 581 893 q 349 888 379 893 q 314 863 318 882 q 299 510 300 772 q 510 518 475 510 q 556 549 546 526 q 581 643 567 571 l 629 638 q 618 483 618 557 q 629 328 618 410 l 581 321 q 556 415 567 393 q 510 446 546 438 q 299 454 475 454 m 604 1263 l 364 1038 l 322 1044 l 508 1321 q 572 1303 543 1321 q 604 1263 601 1286 z "},"Ê":{"ha":844,"x_min":38,"x_max":797,"o":"m 299 454 q 310 121 299 192 l 314 94 q 454 50 326 50 q 556 55 518 50 q 638 78 594 60 q 760 238 718 110 l 797 221 q 764 0 772 144 l 208 0 q 42 -4 129 0 l 38 36 q 133 61 108 50 q 161 96 158 72 q 174 392 174 176 q 165 828 174 742 l 163 856 q 138 891 160 881 q 49 915 115 901 l 53 956 q 382 951 140 951 q 738 960 624 951 l 738 939 q 754 735 738 829 l 717 718 q 631 863 681 832 q 442 893 581 893 q 349 888 379 893 q 314 863 318 882 q 299 510 300 772 q 510 518 475 510 q 556 549 546 526 q 581 643 567 571 l 629 638 q 618 483 618 557 q 629 328 618 410 l 581 321 q 556 415 567 393 q 510 446 546 438 q 299 454 475 454 m 396 1315 q 420 1319 404 1319 q 447 1314 436 1319 l 578 1044 l 536 1038 l 421 1182 l 307 1038 l 265 1044 l 396 1315 z "},"Ë":{"ha":844,"x_min":38,"x_max":797,"o":"m 299 454 q 310 121 299 192 l 314 94 q 454 50 326 50 q 556 55 518 50 q 638 78 594 60 q 760 238 718 110 l 797 221 q 764 0 772 144 l 208 0 q 42 -4 129 0 l 38 36 q 133 61 108 50 q 161 96 158 72 q 174 392 174 176 q 165 828 174 742 l 163 856 q 138 891 160 881 q 49 915 115 901 l 53 956 q 382 951 140 951 q 738 960 624 951 l 738 939 q 754 735 738 829 l 717 718 q 631 863 681 832 q 442 893 581 893 q 349 888 379 893 q 314 863 318 882 q 299 510 300 772 q 510 518 475 510 q 556 549 546 526 q 581 643 567 571 l 629 638 q 618 483 618 557 q 629 328 618 410 l 581 321 q 556 415 567 393 q 510 446 546 438 q 299 454 475 454 m 599 1122 q 588 1111 599 1122 q 547 1100 578 1100 q 496 1122 517 1100 q 475 1174 475 1143 q 496 1226 475 1206 q 547 1247 517 1247 q 599 1226 578 1247 q 619 1174 619 1206 q 599 1122 619 1143 m 349 1122 q 338 1111 349 1122 q 297 1100 328 1100 q 246 1122 267 1100 q 225 1174 225 1143 q 246 1226 225 1206 q 297 1247 267 1247 q 349 1226 328 1247 q 369 1174 369 1206 q 349 1122 369 1143 z "},"Ì":{"ha":475,"x_min":40,"x_max":429,"o":"m 311 856 q 300 558 300 774 q 308 125 300 210 l 311 96 q 338 60 314 71 q 429 36 361 50 l 425 -4 q 235 0 338 0 q 44 -4 132 0 l 40 36 q 136 61 111 50 q 164 96 161 72 q 175 393 175 178 q 167 828 175 742 l 164 856 q 139 891 161 881 q 50 915 117 901 l 54 956 q 238 951 142 951 q 421 956 333 951 l 425 915 q 336 891 358 901 q 311 856 314 881 m 303 1038 l 63 1263 q 94 1303 65 1286 q 158 1321 124 1321 l 344 1044 l 303 1038 z "},"Í":{"ha":475,"x_min":40,"x_max":429,"o":"m 311 856 q 300 558 300 774 q 308 125 300 210 l 311 96 q 338 60 314 71 q 429 36 361 50 l 425 -4 q 235 0 338 0 q 44 -4 132 0 l 40 36 q 136 61 111 50 q 164 96 161 72 q 175 393 175 178 q 167 828 175 742 l 164 856 q 139 891 161 881 q 50 915 117 901 l 54 956 q 238 951 142 951 q 421 956 333 951 l 425 915 q 336 891 358 901 q 311 856 314 881 m 419 1263 l 179 1038 l 138 1044 l 324 1321 q 388 1303 358 1321 q 419 1263 417 1286 z "},"Î":{"ha":475,"x_min":40,"x_max":429,"o":"m 311 856 q 300 558 300 774 q 308 125 300 210 l 311 96 q 338 60 314 71 q 429 36 361 50 l 425 -4 q 235 0 338 0 q 44 -4 132 0 l 40 36 q 136 61 111 50 q 164 96 161 72 q 175 393 175 178 q 167 828 175 742 l 164 856 q 139 891 161 881 q 50 915 117 901 l 54 956 q 238 951 142 951 q 421 956 333 951 l 425 915 q 336 891 358 901 q 311 856 314 881 m 211 1315 q 235 1319 219 1319 q 263 1314 251 1319 l 393 1044 l 351 1038 l 236 1182 l 122 1038 l 81 1044 l 211 1315 z "},"Ï":{"ha":475,"x_min":40,"x_max":435,"o":"m 311 856 q 300 558 300 774 q 308 125 300 210 l 311 96 q 338 60 314 71 q 429 36 361 50 l 425 -4 q 235 0 338 0 q 44 -4 132 0 l 40 36 q 136 61 111 50 q 164 96 161 72 q 175 393 175 178 q 167 828 175 742 l 164 856 q 139 891 161 881 q 50 915 117 901 l 54 956 q 238 951 142 951 q 421 956 333 951 l 425 915 q 336 891 358 901 q 311 856 314 881 m 414 1122 q 403 1111 414 1122 q 363 1100 393 1100 q 311 1122 332 1100 q 290 1174 290 1143 q 311 1226 290 1206 q 363 1247 332 1247 q 414 1226 393 1247 q 435 1174 435 1206 q 414 1122 435 1143 m 164 1122 q 153 1111 164 1122 q 113 1100 143 1100 q 61 1122 82 1100 q 40 1174 40 1143 q 61 1226 40 1206 q 113 1247 82 1247 q 164 1226 143 1247 q 185 1174 185 1206 q 164 1122 185 1143 z "},"Ð":{"ha":1068,"x_min":40,"x_max":1000,"o":"m 240 951 l 488 951 q 775 889 649 951 q 969 678 915 817 q 1000 507 1000 601 q 863 142 1000 283 q 464 0 725 0 l 240 0 q 44 -4 132 0 l 40 36 q 136 61 111 50 q 164 96 161 72 q 175 439 174 172 l 53 439 l 53 513 l 175 513 q 167 829 175 750 l 164 856 q 139 891 161 881 q 50 915 117 901 l 54 956 q 240 951 142 951 m 315 83 q 475 67 390 67 q 636 101 560 67 q 753 181 713 135 q 817 292 793 228 q 854 486 854 386 q 401 893 854 893 q 335 888 351 893 q 315 864 319 882 q 300 513 301 779 l 583 513 l 583 438 l 300 438 q 311 113 300 211 l 315 83 z "},"Ñ":{"ha":1090,"x_min":29,"x_max":1058,"o":"m 844 183 q 847 435 847 261 q 839 828 847 753 l 835 856 q 761 903 831 889 q 704 915 744 907 l 708 956 q 881 951 796 951 q 1054 956 967 951 l 1058 915 q 969 891 992 901 q 944 856 947 881 q 931 558 931 774 q 942 53 931 229 l 946 0 l 835 -12 l 271 746 l 264 746 q 258 483 258 624 q 269 125 258 221 l 274 96 q 347 47 278 63 q 404 36 364 44 l 400 -4 q 217 0 313 0 q 33 -4 121 0 l 29 36 q 132 61 103 50 q 164 96 161 72 q 175 392 175 176 q 167 828 175 742 l 164 856 q 139 891 161 881 q 50 915 117 901 l 54 956 q 261 951 142 951 l 838 183 l 844 183 m 647 1089 q 547 1116 615 1089 q 446 1143 479 1143 q 353 1090 390 1143 l 317 1101 q 442 1242 358 1242 q 541 1215 472 1242 q 643 1188 610 1188 q 736 1240 697 1188 l 772 1229 q 647 1089 729 1089 z "},"Ò":{"ha":1092,"x_min":68,"x_max":1024,"o":"m 553 903 q 410 871 472 903 q 311 792 347 839 q 253 685 275 744 q 214 490 214 585 q 231 320 214 396 q 283 181 247 244 q 385 81 319 117 q 531 44 450 44 q 672 72 613 44 q 769 142 732 100 q 831 239 806 185 q 878 433 875 335 q 553 903 878 903 m 907 144 q 749 23 849 68 q 517 -22 649 -22 q 178 101 289 -22 q 68 436 68 224 q 185 803 68 650 q 343 924 243 879 q 575 969 443 969 q 913 847 803 969 q 1024 513 1024 725 q 907 144 1024 300 m 588 1038 l 347 1263 q 379 1303 350 1286 q 443 1321 408 1321 l 629 1044 l 588 1038 z "},"Ó":{"ha":1092,"x_min":68,"x_max":1024,"o":"m 553 903 q 410 871 472 903 q 311 792 347 839 q 253 685 275 744 q 214 490 214 585 q 231 320 214 396 q 283 181 247 244 q 385 81 319 117 q 531 44 450 44 q 672 72 613 44 q 769 142 732 100 q 831 239 806 185 q 878 433 875 335 q 553 903 878 903 m 907 144 q 749 23 849 68 q 517 -22 649 -22 q 178 101 289 -22 q 68 436 68 224 q 185 803 68 650 q 343 924 243 879 q 575 969 443 969 q 913 847 803 969 q 1024 513 1024 725 q 907 144 1024 300 m 754 1263 l 514 1038 l 472 1044 l 658 1321 q 722 1303 693 1321 q 754 1263 751 1286 z "},"Ô":{"ha":1092,"x_min":68,"x_max":1024,"o":"m 553 903 q 410 871 472 903 q 311 792 347 839 q 253 685 275 744 q 214 490 214 585 q 231 320 214 396 q 283 181 247 244 q 385 81 319 117 q 531 44 450 44 q 672 72 613 44 q 769 142 732 100 q 831 239 806 185 q 878 433 875 335 q 553 903 878 903 m 907 144 q 749 23 849 68 q 517 -22 649 -22 q 178 101 289 -22 q 68 436 68 224 q 185 803 68 650 q 343 924 243 879 q 575 969 443 969 q 913 847 803 969 q 1024 513 1024 725 q 907 144 1024 300 m 519 1315 q 544 1319 528 1319 q 571 1314 560 1319 l 701 1044 l 660 1038 l 544 1182 l 431 1038 l 389 1044 l 519 1315 z "},"Õ":{"ha":1092,"x_min":68,"x_max":1024,"o":"m 553 903 q 410 871 472 903 q 311 792 347 839 q 253 685 275 744 q 214 490 214 585 q 231 320 214 396 q 283 181 247 244 q 385 81 319 117 q 531 44 450 44 q 672 72 613 44 q 769 142 732 100 q 831 239 806 185 q 878 433 875 335 q 553 903 878 903 m 907 144 q 749 23 849 68 q 517 -22 649 -22 q 178 101 289 -22 q 68 436 68 224 q 185 803 68 650 q 343 924 243 879 q 575 969 443 969 q 913 847 803 969 q 1024 513 1024 725 q 907 144 1024 300 m 649 1089 q 549 1116 617 1089 q 447 1143 481 1143 q 354 1090 392 1143 l 318 1101 q 443 1242 360 1242 q 542 1215 474 1242 q 644 1188 611 1188 q 738 1240 697 1188 l 774 1229 q 649 1089 731 1089 z "},"Ö":{"ha":1092,"x_min":68,"x_max":1024,"o":"m 553 903 q 410 871 472 903 q 311 792 347 839 q 253 685 275 744 q 214 490 214 585 q 231 320 214 396 q 283 181 247 244 q 385 81 319 117 q 531 44 450 44 q 672 72 613 44 q 769 142 732 100 q 831 239 806 185 q 878 433 875 335 q 553 903 878 903 m 907 144 q 749 23 849 68 q 517 -22 649 -22 q 178 101 289 -22 q 68 436 68 224 q 185 803 68 650 q 343 924 243 879 q 575 969 443 969 q 913 847 803 969 q 1024 513 1024 725 q 907 144 1024 300 m 722 1122 q 712 1111 722 1122 q 671 1100 701 1100 q 619 1122 640 1100 q 599 1174 599 1143 q 619 1226 599 1206 q 671 1247 640 1247 q 722 1226 701 1247 q 743 1174 743 1206 q 722 1122 743 1143 m 472 1122 q 462 1111 472 1122 q 421 1100 451 1100 q 369 1122 390 1100 q 349 1174 349 1143 q 369 1226 349 1206 q 421 1247 390 1247 q 472 1226 451 1247 q 493 1174 493 1206 q 472 1122 493 1143 z "},"×":{"ha":726,"x_min":51,"x_max":676,"o":"m 615 735 l 676 675 l 424 422 l 675 171 l 615 110 l 363 361 l 113 111 l 51 171 l 303 422 l 51 674 l 111 735 l 363 482 l 615 735 z "},"Ø":{"ha":1092,"x_min":68,"x_max":1024,"o":"m 575 969 l 610 968 l 629 1057 l 719 1057 l 697 958 q 943 810 863 926 q 1024 513 1024 693 q 907 144 1024 300 q 749 23 849 68 q 517 -22 649 -22 q 482 -21 493 -22 l 463 -111 l 372 -111 l 394 -11 q 149 138 229 21 q 68 436 68 254 q 185 803 68 650 q 343 924 243 879 q 575 969 443 969 m 214 486 q 411 67 214 149 l 594 900 q 553 903 567 903 q 410 871 472 903 q 311 792 347 839 q 253 685 275 744 q 214 486 214 585 m 539 44 q 672 72 613 44 q 769 142 732 100 q 831 239 806 185 q 878 433 875 335 q 681 879 878 799 l 497 46 q 539 44 510 44 z "},"Ù":{"ha":1056,"x_min":31,"x_max":1035,"o":"m 685 956 q 858 951 772 951 q 1031 956 943 951 l 1035 915 q 944 891 967 901 q 921 856 922 881 q 906 343 914 706 q 811 82 901 181 q 528 -17 721 -17 q 370 -2 435 -17 q 256 50 306 13 q 154 328 157 124 q 144 856 149 676 q 122 891 144 881 q 31 915 99 901 l 35 956 q 218 951 122 951 q 401 956 314 951 l 406 915 q 317 891 339 901 q 292 856 294 881 q 279 578 279 765 q 280 361 279 392 q 283 287 281 331 q 293 219 286 243 q 312 166 300 196 q 342 121 324 136 q 386 90 360 106 q 526 63 432 63 q 679 91 619 63 q 769 177 739 119 q 811 303 800 235 q 822 488 822 371 q 814 825 822 736 l 811 856 q 738 903 807 889 q 681 915 721 907 l 685 956 m 576 1038 l 336 1263 q 368 1303 339 1286 q 432 1321 397 1321 l 618 1044 l 576 1038 z "},"Ú":{"ha":1056,"x_min":31,"x_max":1035,"o":"m 685 956 q 858 951 772 951 q 1031 956 943 951 l 1035 915 q 944 891 967 901 q 921 856 922 881 q 906 343 914 706 q 811 82 901 181 q 528 -17 721 -17 q 370 -2 435 -17 q 256 50 306 13 q 154 328 157 124 q 144 856 149 676 q 122 891 144 881 q 31 915 99 901 l 35 956 q 218 951 122 951 q 401 956 314 951 l 406 915 q 317 891 339 901 q 292 856 294 881 q 279 578 279 765 q 280 361 279 392 q 283 287 281 331 q 293 219 286 243 q 312 166 300 196 q 342 121 324 136 q 386 90 360 106 q 526 63 432 63 q 679 91 619 63 q 769 177 739 119 q 811 303 800 235 q 822 488 822 371 q 814 825 822 736 l 811 856 q 738 903 807 889 q 681 915 721 907 l 685 956 m 786 1263 l 546 1038 l 504 1044 l 690 1321 q 754 1303 725 1321 q 786 1263 783 1286 z "},"Û":{"ha":1056,"x_min":31,"x_max":1035,"o":"m 685 956 q 858 951 772 951 q 1031 956 943 951 l 1035 915 q 944 891 967 901 q 921 856 922 881 q 906 343 914 706 q 811 82 901 181 q 528 -17 721 -17 q 370 -2 435 -17 q 256 50 306 13 q 154 328 157 124 q 144 856 149 676 q 122 891 144 881 q 31 915 99 901 l 35 956 q 218 951 122 951 q 401 956 314 951 l 406 915 q 317 891 339 901 q 292 856 294 881 q 279 578 279 765 q 280 361 279 392 q 283 287 281 331 q 293 219 286 243 q 312 166 300 196 q 342 121 324 136 q 386 90 360 106 q 526 63 432 63 q 679 91 619 63 q 769 177 739 119 q 811 303 800 235 q 822 488 822 371 q 814 825 822 736 l 811 856 q 738 903 807 889 q 681 915 721 907 l 685 956 m 522 1315 q 547 1319 531 1319 q 574 1314 563 1319 l 704 1044 l 663 1038 l 547 1182 l 433 1038 l 392 1044 l 522 1315 z "},"Ü":{"ha":1056,"x_min":31,"x_max":1035,"o":"m 685 956 q 858 951 772 951 q 1031 956 943 951 l 1035 915 q 944 891 967 901 q 921 856 922 881 q 906 343 914 706 q 811 82 901 181 q 528 -17 721 -17 q 370 -2 435 -17 q 256 50 306 13 q 154 328 157 124 q 144 856 149 676 q 122 891 144 881 q 31 915 99 901 l 35 956 q 218 951 122 951 q 401 956 314 951 l 406 915 q 317 891 339 901 q 292 856 294 881 q 279 578 279 765 q 280 361 279 392 q 283 287 281 331 q 293 219 286 243 q 312 166 300 196 q 342 121 324 136 q 386 90 360 106 q 526 63 432 63 q 679 91 619 63 q 769 177 739 119 q 811 303 800 235 q 822 488 822 371 q 814 825 822 736 l 811 856 q 738 903 807 889 q 681 915 721 907 l 685 956 m 744 1122 q 734 1111 744 1122 q 693 1100 724 1100 q 642 1122 663 1100 q 621 1174 621 1143 q 642 1226 621 1206 q 693 1247 663 1247 q 744 1226 724 1247 q 765 1174 765 1206 q 744 1122 765 1143 m 494 1122 q 484 1111 494 1122 q 443 1100 474 1100 q 392 1122 413 1100 q 371 1174 371 1143 q 392 1226 371 1206 q 443 1247 413 1247 q 494 1226 474 1247 q 515 1174 515 1206 q 494 1122 515 1143 z "},"Ý":{"ha":890,"x_min":-6,"x_max":900,"o":"m 669 865 q 549 915 669 890 l 553 956 q 724 951 640 951 q 896 956 808 951 l 900 915 q 813 888 839 903 q 775 847 786 874 l 507 374 q 515 118 507 185 l 518 96 q 544 60 521 71 q 636 36 568 50 l 632 -4 q 442 0 544 0 q 251 -4 339 0 l 247 36 q 343 61 318 50 q 371 96 368 72 q 381 364 379 157 l 113 856 q 77 891 100 879 q -6 915 54 903 l -1 956 q 189 951 86 951 q 379 956 292 951 l 383 915 q 260 865 260 892 q 263 854 260 863 l 468 450 l 667 856 q 669 865 669 861 m 710 1263 l 469 1038 l 428 1044 l 614 1321 q 678 1303 649 1321 q 710 1263 707 1286 z "},"Þ":{"ha":800,"x_min":40,"x_max":765,"o":"m 425 -4 q 235 0 338 0 q 44 -4 132 0 l 40 36 q 136 61 111 50 q 164 96 161 72 q 175 393 175 178 q 167 828 175 742 l 164 856 q 139 891 161 881 q 50 915 117 901 l 54 956 q 238 951 142 951 q 421 956 333 951 l 425 915 q 336 891 358 901 q 311 861 314 881 q 307 806 308 842 l 451 806 q 685 732 604 806 q 765 545 765 658 q 665 338 765 432 q 399 243 565 243 q 303 250 344 243 l 311 96 q 338 60 314 71 q 429 36 361 50 l 425 -4 m 376 301 q 564 358 496 301 q 632 531 632 415 q 574 697 632 647 q 399 747 515 747 q 333 740 347 747 q 314 700 319 733 q 300 306 300 628 q 376 301 339 301 z "},"ß":{"ha":800,"x_min":32,"x_max":744,"o":"m 536 43 q 629 135 629 43 q 529 258 629 189 q 446 318 488 286 q 375 396 404 350 q 346 492 346 442 q 364 577 346 542 q 410 633 382 613 q 469 677 438 654 q 528 719 500 700 q 592 844 592 764 q 551 922 592 892 q 451 953 511 953 q 250 633 250 953 q 257 176 250 349 q 264 0 264 4 q 32 -4 117 0 l 36 36 q 97 48 64 39 q 131 67 129 57 q 142 564 142 67 l 46 563 l 42 578 l 74 632 q 140 626 93 629 q 292 958 140 850 q 482 1014 371 1014 q 598 997 550 1014 q 668 954 646 981 q 708 858 708 907 q 682 769 708 808 q 618 706 656 729 q 544 658 581 682 q 454 513 454 601 q 557 378 454 443 q 642 322 600 351 q 744 163 744 250 q 690 39 744 90 q 522 -12 636 -12 q 321 22 408 -12 l 339 121 q 429 67 371 92 q 536 43 488 43 z "},"à":{"ha":635,"x_min":54,"x_max":621,"o":"m 404 292 q 231 249 290 289 q 171 161 171 208 q 195 92 171 114 q 274 71 219 71 q 404 117 328 71 l 404 292 m 506 -12 q 408 78 422 -12 q 197 -12 286 -12 q 96 24 138 -12 q 54 139 54 61 q 137 279 54 217 q 404 354 219 342 l 404 483 q 376 543 404 522 q 296 564 347 564 q 214 535 244 564 q 183 463 183 507 q 188 425 183 446 l 157 411 q 105 453 129 426 q 81 491 81 479 q 99 526 81 503 q 150 575 118 549 q 235 620 182 601 q 356 639 289 639 q 464 606 422 639 q 506 488 506 574 q 514 128 506 403 q 564 61 515 61 q 607 72 585 61 l 621 36 q 506 -12 568 -12 m 363 719 l 122 944 q 154 985 125 968 q 218 1003 183 1003 l 404 726 l 363 719 z "},"á":{"ha":635,"x_min":54,"x_max":621,"o":"m 404 292 q 231 249 290 289 q 171 161 171 208 q 195 92 171 114 q 274 71 219 71 q 404 117 328 71 l 404 292 m 506 -12 q 408 78 422 -12 q 197 -12 286 -12 q 96 24 138 -12 q 54 139 54 61 q 137 279 54 217 q 404 354 219 342 l 404 483 q 376 543 404 522 q 296 564 347 564 q 214 535 244 564 q 183 463 183 507 q 188 425 183 446 l 157 411 q 105 453 129 426 q 81 491 81 479 q 99 526 81 503 q 150 575 118 549 q 235 620 182 601 q 356 639 289 639 q 464 606 422 639 q 506 488 506 574 q 514 128 506 403 q 564 61 515 61 q 607 72 585 61 l 621 36 q 506 -12 568 -12 m 521 944 l 281 719 l 239 726 l 425 1003 q 489 985 460 1003 q 521 944 518 968 z "},"â":{"ha":635,"x_min":54,"x_max":621,"o":"m 404 292 q 231 249 290 289 q 171 161 171 208 q 195 92 171 114 q 274 71 219 71 q 404 117 328 71 l 404 292 m 506 -12 q 408 78 422 -12 q 197 -12 286 -12 q 96 24 138 -12 q 54 139 54 61 q 137 279 54 217 q 404 354 219 342 l 404 483 q 376 543 404 522 q 296 564 347 564 q 214 535 244 564 q 183 463 183 507 q 188 425 183 446 l 157 411 q 105 453 129 426 q 81 491 81 479 q 99 526 81 503 q 150 575 118 549 q 235 620 182 601 q 356 639 289 639 q 464 606 422 639 q 506 488 506 574 q 514 128 506 403 q 564 61 515 61 q 607 72 585 61 l 621 36 q 506 -12 568 -12 m 290 997 q 315 1001 299 1001 q 342 996 331 1001 l 472 726 l 431 719 l 315 864 l 201 719 l 160 726 l 290 997 z "},"ã":{"ha":635,"x_min":54,"x_max":621,"o":"m 404 292 q 231 249 290 289 q 171 161 171 208 q 195 92 171 114 q 274 71 219 71 q 404 117 328 71 l 404 292 m 506 -12 q 408 78 422 -12 q 197 -12 286 -12 q 96 24 138 -12 q 54 139 54 61 q 137 279 54 217 q 404 354 219 342 l 404 483 q 376 543 404 522 q 296 564 347 564 q 214 535 244 564 q 183 463 183 507 q 188 425 183 446 l 157 411 q 105 453 129 426 q 81 491 81 479 q 99 526 81 503 q 150 575 118 549 q 235 620 182 601 q 356 639 289 639 q 464 606 422 639 q 506 488 506 574 q 514 128 506 403 q 564 61 515 61 q 607 72 585 61 l 621 36 q 506 -12 568 -12 m 425 771 q 325 798 393 771 q 224 825 257 825 q 131 772 168 825 l 94 783 q 219 924 136 924 q 319 897 250 924 q 421 869 388 869 q 514 922 475 869 l 550 911 q 425 771 507 771 z "},"ä":{"ha":635,"x_min":54,"x_max":621,"o":"m 404 292 q 231 249 290 289 q 171 161 171 208 q 195 92 171 114 q 274 71 219 71 q 404 117 328 71 l 404 292 m 506 -12 q 408 78 422 -12 q 197 -12 286 -12 q 96 24 138 -12 q 54 139 54 61 q 137 279 54 217 q 404 354 219 342 l 404 483 q 376 543 404 522 q 296 564 347 564 q 214 535 244 564 q 183 463 183 507 q 188 425 183 446 l 157 411 q 105 453 129 426 q 81 491 81 479 q 99 526 81 503 q 150 575 118 549 q 235 620 182 601 q 356 639 289 639 q 464 606 422 639 q 506 488 506 574 q 514 128 506 403 q 564 61 515 61 q 607 72 585 61 l 621 36 q 506 -12 568 -12 m 492 803 q 481 793 492 803 q 440 782 471 782 q 389 803 410 782 q 368 856 368 825 q 389 908 368 888 q 440 929 410 929 q 492 908 471 929 q 513 856 513 888 q 492 803 513 825 m 242 803 q 231 793 242 803 q 190 782 221 782 q 139 803 160 782 q 118 856 118 825 q 139 908 118 888 q 190 929 160 929 q 242 908 221 929 q 263 856 263 888 q 242 803 263 825 z "},"å":{"ha":635,"x_min":54,"x_max":621,"o":"m 404 292 q 231 249 290 289 q 171 161 171 208 q 195 92 171 114 q 274 71 219 71 q 404 117 328 71 l 404 292 m 506 -12 q 408 78 422 -12 q 197 -12 286 -12 q 96 24 138 -12 q 54 139 54 61 q 137 279 54 217 q 404 354 219 342 l 404 483 q 376 543 404 522 q 296 564 347 564 q 214 535 244 564 q 183 463 183 507 q 188 425 183 446 l 157 411 q 105 453 129 426 q 81 491 81 479 q 99 526 81 503 q 150 575 118 549 q 235 620 182 601 q 356 639 289 639 q 464 606 422 639 q 506 488 506 574 q 514 128 506 403 q 564 61 515 61 q 607 72 585 61 l 621 36 q 506 -12 568 -12 m 315 757 q 383 860 383 757 q 313 964 383 964 q 243 867 243 964 q 261 789 243 821 q 315 757 279 757 m 213 758 q 192 779 213 758 q 171 860 171 800 q 213 963 171 919 q 316 1006 256 1006 q 419 963 376 1006 q 461 860 461 921 q 419 758 461 800 q 317 715 378 715 q 213 758 256 715 z "},"æ":{"ha":972,"x_min":54,"x_max":929,"o":"m 804 439 q 767 537 804 503 q 688 571 731 571 q 575 516 619 571 q 515 364 531 461 q 800 399 731 388 q 804 439 804 419 m 394 488 q 366 546 394 526 q 285 565 338 565 q 203 538 233 565 q 174 464 174 511 q 178 425 174 446 l 147 411 q 95 453 119 426 q 71 491 71 479 q 90 526 71 503 q 140 575 108 549 q 226 620 172 601 q 341 639 279 639 q 440 623 403 639 q 492 560 478 607 q 718 639 581 639 q 865 577 801 639 q 929 396 929 515 l 882 339 q 660 317 769 325 q 508 306 550 310 q 717 74 508 74 q 894 115 811 74 l 911 74 q 683 -12 810 -12 q 447 88 526 -12 q 197 -12 328 -12 q 96 24 138 -12 q 54 139 54 61 q 135 279 54 217 q 394 354 215 342 l 394 488 m 394 296 q 226 247 282 286 q 171 161 171 207 q 261 71 171 71 q 421 125 338 71 q 394 296 394 211 z "},"ç":{"ha":615,"x_min":50,"x_max":585,"o":"m 339 -6 l 331 -6 q 325 -36 325 -18 q 379 -97 325 -54 q 433 -174 433 -139 q 378 -271 433 -222 q 214 -360 322 -319 q 192 -309 192 -342 q 224 -250 192 -276 q 358 -201 358 -243 q 312 -144 358 -181 q 265 -75 265 -108 q 293 -3 265 -42 q 112 94 174 11 q 50 310 50 178 q 135 544 50 443 q 374 646 221 646 q 485 626 436 646 q 556 585 535 606 q 576 551 576 564 q 543 450 576 496 l 510 450 q 453 533 493 496 q 351 571 414 571 q 219 494 265 571 q 172 305 172 417 q 226 135 172 193 q 378 76 281 76 q 568 132 475 76 l 585 86 q 339 -6 469 -6 z "},"è":{"ha":638,"x_min":51,"x_max":594,"o":"m 469 444 q 433 540 469 508 q 353 571 397 571 q 240 519 288 571 q 178 393 193 468 l 465 404 q 469 444 469 425 m 349 -12 q 126 72 201 -12 q 51 295 51 156 q 134 537 51 435 q 383 639 217 639 q 531 579 468 639 q 594 401 594 519 l 547 344 q 416 346 539 346 q 169 336 293 346 l 169 324 q 222 134 169 197 q 367 71 275 71 q 560 115 458 71 l 576 74 q 349 -12 469 -12 m 396 719 l 156 944 q 188 985 158 968 q 251 1003 217 1003 l 438 726 l 396 719 z "},"é":{"ha":638,"x_min":51,"x_max":594,"o":"m 469 444 q 433 540 469 508 q 353 571 397 571 q 240 519 288 571 q 178 393 193 468 l 465 404 q 469 444 469 425 m 349 -12 q 126 72 201 -12 q 51 295 51 156 q 134 537 51 435 q 383 639 217 639 q 531 579 468 639 q 594 401 594 519 l 547 344 q 416 346 539 346 q 169 336 293 346 l 169 324 q 222 134 169 197 q 367 71 275 71 q 560 115 458 71 l 576 74 q 349 -12 469 -12 m 551 944 l 311 719 l 269 726 l 456 1003 q 519 985 490 1003 q 551 944 549 968 z "},"ê":{"ha":638,"x_min":51,"x_max":594,"o":"m 469 444 q 433 540 469 508 q 353 571 397 571 q 240 519 288 571 q 178 393 193 468 l 465 404 q 469 444 469 425 m 349 -12 q 126 72 201 -12 q 51 295 51 156 q 134 537 51 435 q 383 639 217 639 q 531 579 468 639 q 594 401 594 519 l 547 344 q 416 346 539 346 q 169 336 293 346 l 169 324 q 222 134 169 197 q 367 71 275 71 q 560 115 458 71 l 576 74 q 349 -12 469 -12 m 293 997 q 317 1001 301 1001 q 344 996 333 1001 l 475 726 l 433 719 l 318 864 l 204 719 l 163 726 l 293 997 z "},"ë":{"ha":638,"x_min":51,"x_max":594,"o":"m 469 444 q 433 540 469 508 q 353 571 397 571 q 240 519 288 571 q 178 393 193 468 l 465 404 q 469 444 469 425 m 349 -12 q 126 72 201 -12 q 51 295 51 156 q 134 537 51 435 q 383 639 217 639 q 531 579 468 639 q 594 401 594 519 l 547 344 q 416 346 539 346 q 169 336 293 346 l 169 324 q 222 134 169 197 q 367 71 275 71 q 560 115 458 71 l 576 74 q 349 -12 469 -12 m 542 803 q 531 793 542 803 q 490 782 521 782 q 439 803 460 782 q 418 856 418 825 q 439 908 418 888 q 490 929 460 929 q 542 908 521 929 q 563 856 563 888 q 542 803 563 825 m 292 803 q 281 793 292 803 q 240 782 271 782 q 189 803 210 782 q 168 856 168 825 q 189 908 168 888 q 240 929 210 929 q 292 908 271 929 q 313 856 313 888 q 292 803 313 825 z "},"ì":{"ha":382,"x_min":-17,"x_max":360,"o":"m 250 625 l 247 318 q 258 85 247 139 l 261 67 q 297 48 263 57 q 360 36 331 39 l 356 -4 q 193 0 289 0 q 31 -4 97 0 l 35 36 q 97 48 64 39 q 132 67 131 57 q 143 261 143 115 q 132 550 143 497 l 43 576 l 40 613 q 224 638 129 613 l 250 625 m 224 719 l -17 944 q 15 985 -14 968 q 79 1003 44 1003 l 265 726 l 224 719 z "},"í":{"ha":382,"x_min":31,"x_max":393,"o":"m 393 944 l 153 719 l 111 726 l 297 1003 q 361 985 332 1003 q 393 944 390 968 m 250 625 l 247 318 q 258 85 247 139 l 261 67 q 297 48 263 57 q 360 36 331 39 l 356 -4 q 193 0 289 0 q 31 -4 97 0 l 35 36 q 97 48 64 39 q 132 67 131 57 q 143 261 143 115 q 132 550 143 497 l 43 576 l 40 613 q 224 638 129 613 l 250 625 z "},"î":{"ha":382,"x_min":29,"x_max":360,"o":"m 250 625 l 247 318 q 258 85 247 139 l 261 67 q 297 48 263 57 q 360 36 331 39 l 356 -4 q 193 0 289 0 q 31 -4 97 0 l 35 36 q 97 48 64 39 q 132 67 131 57 q 143 261 143 115 q 132 550 143 497 l 43 576 l 40 613 q 224 638 129 613 l 250 625 m 160 997 q 184 1001 168 1001 q 211 996 200 1001 l 342 726 l 300 719 l 185 864 l 71 719 l 29 726 l 160 997 z "},"ï":{"ha":382,"x_min":-6,"x_max":389,"o":"m 250 625 l 247 318 q 258 85 247 139 l 261 67 q 297 48 263 57 q 360 36 331 39 l 356 -4 q 193 0 289 0 q 31 -4 97 0 l 35 36 q 97 48 64 39 q 132 67 131 57 q 143 261 143 115 q 132 550 143 497 l 43 576 l 40 613 q 224 638 129 613 l 250 625 m 368 803 q 358 793 368 803 q 317 782 347 782 q 265 803 286 782 q 244 856 244 825 q 265 908 244 888 q 317 929 286 929 q 368 908 347 929 q 389 856 389 888 q 368 803 389 825 m 118 803 q 108 793 118 803 q 67 782 97 782 q 15 803 36 782 q -6 856 -6 825 q 15 908 -6 888 q 67 929 36 929 q 118 908 97 929 q 139 856 139 888 q 118 803 139 825 z "},"ð":{"ha":735,"x_min":54,"x_max":681,"o":"m 680 344 q 680 267 680 344 q 598 89 681 190 q 357 -12 515 -12 q 126 67 199 -12 q 54 290 54 147 q 137 535 54 433 q 386 638 219 638 q 478 615 433 638 q 314 833 418 742 l 143 708 l 143 788 l 261 874 q 106 965 196 922 l 128 1014 q 313 911 219 976 l 456 1015 l 456 936 l 368 872 q 592 633 504 768 q 680 344 679 497 m 371 582 q 272 553 313 582 q 211 478 231 524 q 176 301 176 397 q 221 124 176 204 q 364 43 265 43 q 457 68 417 43 q 517 133 497 93 q 558 286 556 210 q 371 582 558 582 z "},"ñ":{"ha":778,"x_min":32,"x_max":754,"o":"m 240 510 l 239 318 q 250 85 239 139 l 253 67 q 284 48 254 57 q 342 36 314 39 l 338 -4 q 185 0 271 0 q 32 -4 99 0 l 36 36 q 92 48 63 39 q 124 67 122 57 q 135 261 135 115 q 124 550 135 497 l 35 576 l 32 613 q 215 638 121 613 l 242 625 l 242 558 q 510 639 396 639 q 615 611 579 639 q 651 507 651 583 l 651 318 q 661 85 651 139 l 665 67 q 697 48 667 57 q 754 36 726 39 l 750 -4 q 597 0 683 0 q 444 -4 511 0 l 449 36 q 505 48 475 39 q 536 67 535 57 q 547 318 547 115 l 547 453 q 515 528 547 507 q 407 549 483 549 q 240 510 331 549 m 503 771 q 403 798 471 771 q 301 825 335 825 q 208 772 246 825 l 172 783 q 297 924 214 924 q 397 897 328 924 q 499 869 465 869 q 592 922 553 869 l 628 911 q 503 771 585 771 z "},"ò":{"ha":735,"x_min":54,"x_max":681,"o":"m 371 571 q 272 542 314 571 q 211 471 231 514 q 174 319 174 392 q 219 130 174 206 q 364 54 265 54 q 457 78 417 54 q 518 142 497 103 q 561 286 558 214 q 371 571 561 571 m 378 639 q 457 639 378 639 q 608 558 536 639 q 681 334 681 478 q 598 89 681 190 q 357 -12 515 -12 q 126 67 199 -12 q 54 290 54 147 q 137 536 54 433 q 378 639 219 639 m 422 719 l 182 944 q 214 985 185 968 q 278 1003 243 1003 l 464 726 l 422 719 z "},"ó":{"ha":735,"x_min":54,"x_max":681,"o":"m 371 571 q 272 542 314 571 q 211 471 231 514 q 174 319 174 392 q 219 130 174 206 q 364 54 265 54 q 457 78 417 54 q 518 142 497 103 q 561 286 558 214 q 371 571 561 571 m 378 639 q 457 639 378 639 q 608 558 536 639 q 681 334 681 478 q 598 89 681 190 q 357 -12 515 -12 q 126 67 199 -12 q 54 290 54 147 q 137 536 54 433 q 378 639 219 639 m 564 944 l 324 719 l 282 726 l 468 1003 q 532 985 503 1003 q 564 944 561 968 z "},"ô":{"ha":735,"x_min":54,"x_max":681,"o":"m 371 571 q 272 542 314 571 q 211 471 231 514 q 174 319 174 392 q 219 130 174 206 q 364 54 265 54 q 457 78 417 54 q 518 142 497 103 q 561 286 558 214 q 371 571 561 571 m 378 639 q 457 639 378 639 q 608 558 536 639 q 681 334 681 478 q 598 89 681 190 q 357 -12 515 -12 q 126 67 199 -12 q 54 290 54 147 q 137 536 54 433 q 378 639 219 639 m 342 997 q 366 1001 350 1001 q 393 996 382 1001 l 524 726 l 482 719 l 367 864 l 253 719 l 211 726 l 342 997 z "},"õ":{"ha":735,"x_min":54,"x_max":681,"o":"m 371 571 q 272 542 314 571 q 211 471 231 514 q 174 319 174 392 q 219 130 174 206 q 364 54 265 54 q 457 78 417 54 q 518 142 497 103 q 561 286 558 214 q 371 571 561 571 m 378 639 q 457 639 378 639 q 608 558 536 639 q 681 334 681 478 q 598 89 681 190 q 357 -12 515 -12 q 126 67 199 -12 q 54 290 54 147 q 137 536 54 433 q 378 639 219 639 m 469 771 q 369 798 438 771 q 268 825 301 825 q 175 772 213 825 l 139 783 q 264 924 181 924 q 363 897 294 924 q 465 869 432 869 q 558 922 519 869 l 594 911 q 469 771 551 771 z "},"ö":{"ha":735,"x_min":54,"x_max":681,"o":"m 371 571 q 272 542 314 571 q 211 471 231 514 q 174 319 174 392 q 219 130 174 206 q 364 54 265 54 q 457 78 417 54 q 518 142 497 103 q 561 286 558 214 q 371 571 561 571 m 378 639 q 457 639 378 639 q 608 558 536 639 q 681 334 681 478 q 598 89 681 190 q 357 -12 515 -12 q 126 67 199 -12 q 54 290 54 147 q 137 536 54 433 q 378 639 219 639 m 564 803 q 553 793 564 803 q 513 782 543 782 q 461 803 482 782 q 440 856 440 825 q 461 908 440 888 q 513 929 482 929 q 564 908 543 929 q 585 856 585 888 q 564 803 585 825 m 314 803 q 303 793 314 803 q 263 782 293 782 q 211 803 232 782 q 190 856 190 825 q 211 908 190 888 q 263 929 232 929 q 314 908 293 929 q 335 856 335 888 q 314 803 335 825 z "},"÷":{"ha":726,"x_min":33,"x_max":693,"o":"m 33 379 l 33 464 l 693 464 l 693 379 l 33 379 m 415 574 q 404 564 415 574 q 363 553 393 553 q 311 574 332 553 q 290 628 290 596 q 311 681 290 660 q 363 701 332 701 q 415 681 393 701 q 436 628 436 660 q 415 574 436 596 m 415 162 q 404 151 415 162 q 363 140 393 140 q 311 162 332 140 q 290 215 290 183 q 311 268 290 247 q 363 289 332 289 q 415 268 393 289 q 436 215 436 247 q 415 162 436 183 z "},"ø":{"ha":735,"x_min":54,"x_max":681,"o":"m 54 286 q 137 536 54 433 q 386 639 219 639 l 404 639 l 429 751 l 496 751 l 469 631 q 628 533 576 610 q 681 338 681 456 q 598 89 681 190 q 349 -12 515 -12 l 328 -12 l 304 -125 l 236 -125 l 263 -4 q 54 286 54 38 m 364 54 q 457 78 417 54 q 518 142 497 103 q 561 286 558 214 q 451 553 561 497 l 343 54 l 364 54 m 174 319 q 279 74 174 128 l 389 569 q 371 571 382 571 q 272 542 314 571 q 211 471 231 514 q 174 319 174 392 z "},"ù":{"ha":764,"x_min":24,"x_max":742,"o":"m 260 -12 q 118 132 118 -12 l 118 318 q 108 550 118 504 l 26 576 l 24 613 q 200 638 106 613 l 226 625 q 222 174 222 376 q 335 81 222 81 q 436 97 382 81 q 522 132 490 113 q 528 308 528 207 q 517 550 528 497 l 429 576 l 426 613 q 610 638 515 613 l 636 625 q 632 281 632 521 l 636 118 q 655 81 636 94 q 692 65 674 68 q 742 60 710 61 l 738 19 q 586 -6 688 15 q 529 78 544 13 q 260 -12 396 -12 m 413 719 l 172 944 q 204 985 175 968 q 268 1003 233 1003 l 454 726 l 413 719 z "},"ú":{"ha":764,"x_min":24,"x_max":742,"o":"m 260 -12 q 118 132 118 -12 l 118 318 q 108 550 118 504 l 26 576 l 24 613 q 200 638 106 613 l 226 625 q 222 174 222 376 q 335 81 222 81 q 436 97 382 81 q 522 132 490 113 q 528 308 528 207 q 517 550 528 497 l 429 576 l 426 613 q 610 638 515 613 l 636 625 q 632 281 632 521 l 636 118 q 655 81 636 94 q 692 65 674 68 q 742 60 710 61 l 738 19 q 586 -6 688 15 q 529 78 544 13 q 260 -12 396 -12 m 581 944 l 340 719 l 299 726 l 485 1003 q 549 985 519 1003 q 581 944 578 968 z "},"û":{"ha":764,"x_min":24,"x_max":742,"o":"m 260 -12 q 118 132 118 -12 l 118 318 q 108 550 118 504 l 26 576 l 24 613 q 200 638 106 613 l 226 625 q 222 174 222 376 q 335 81 222 81 q 436 97 382 81 q 522 132 490 113 q 528 308 528 207 q 517 550 528 497 l 429 576 l 426 613 q 610 638 515 613 l 636 625 q 632 281 632 521 l 636 118 q 655 81 636 94 q 692 65 674 68 q 742 60 710 61 l 738 19 q 586 -6 688 15 q 529 78 544 13 q 260 -12 396 -12 m 354 997 q 378 1001 363 1001 q 406 996 394 1001 l 536 726 l 494 719 l 379 864 l 265 719 l 224 726 l 354 997 z "},"ü":{"ha":764,"x_min":24,"x_max":742,"o":"m 260 -12 q 118 132 118 -12 l 118 318 q 108 550 118 504 l 26 576 l 24 613 q 200 638 106 613 l 226 625 q 222 174 222 376 q 335 81 222 81 q 436 97 382 81 q 522 132 490 113 q 528 308 528 207 q 517 550 528 497 l 429 576 l 426 613 q 610 638 515 613 l 636 625 q 632 281 632 521 l 636 118 q 655 81 636 94 q 692 65 674 68 q 742 60 710 61 l 738 19 q 586 -6 688 15 q 529 78 544 13 q 260 -12 396 -12 m 551 803 q 541 793 551 803 q 500 782 531 782 q 449 803 469 782 q 428 856 428 825 q 449 908 428 888 q 500 929 469 929 q 551 908 531 929 q 572 856 572 888 q 551 803 572 825 m 301 803 q 291 793 301 803 q 250 782 281 782 q 199 803 219 782 q 178 856 178 825 q 199 908 178 888 q 250 929 219 929 q 301 908 281 929 q 322 856 322 888 q 301 803 322 825 z "},"ý":{"ha":669,"x_min":-1,"x_max":676,"o":"m 294 593 q 232 576 253 589 q 211 556 211 564 q 358 94 211 549 q 511 553 511 531 q 435 593 511 583 l 431 633 q 531 629 478 629 l 672 633 l 676 593 q 589 542 606 583 q 388 0 529 356 q 183 -339 281 -271 q 141 -362 156 -358 q 113 -365 126 -365 q 73 -333 99 -365 q 39 -268 47 -300 l 60 -242 q 122 -254 86 -254 q 322 0 222 -254 l 274 29 q 108 492 167 360 l 88 536 q 3 593 69 582 l -1 633 q 146 629 94 629 l 290 633 l 294 593 m 569 944 l 329 719 l 288 726 l 474 1003 q 538 985 508 1003 q 569 944 567 968 z "},"þ":{"ha":758,"x_min":7,"x_max":701,"o":"m 356 61 q 522 135 467 61 q 578 313 578 210 q 530 483 578 415 q 386 551 482 551 q 300 538 349 551 q 228 508 251 524 l 228 85 q 356 61 294 61 m 329 -365 q 168 -361 263 -361 q 7 -365 74 -361 l 11 -325 q 107 -299 104 -317 q 124 228 124 -31 q 115 857 124 644 l 113 928 l 24 954 l 21 990 q 204 1015 110 990 l 229 1003 l 229 557 q 479 639 358 639 q 634 566 567 639 q 701 333 701 493 q 623 81 701 174 q 425 -12 544 -12 q 228 32 333 -12 q 236 -299 229 -279 q 333 -325 239 -317 l 329 -365 z "},"ÿ":{"ha":669,"x_min":-1,"x_max":676,"o":"m 294 593 q 232 576 253 589 q 211 556 211 564 q 358 94 211 549 q 511 553 511 531 q 435 593 511 583 l 431 633 q 531 629 478 629 l 672 633 l 676 593 q 589 542 606 583 q 388 0 529 356 q 183 -339 281 -271 q 141 -362 156 -358 q 113 -365 126 -365 q 73 -333 99 -365 q 39 -268 47 -300 l 60 -242 q 122 -254 86 -254 q 322 0 222 -254 l 274 29 q 108 492 167 360 l 88 536 q 3 593 69 582 l -1 633 q 146 629 94 629 l 290 633 l 294 593 m 514 803 q 503 793 514 803 q 463 782 493 782 q 411 803 432 782 q 390 856 390 825 q 411 908 390 888 q 463 929 432 929 q 514 908 493 929 q 535 856 535 888 q 514 803 535 825 m 264 803 q 253 793 264 803 q 213 782 243 782 q 161 803 182 782 q 140 856 140 825 q 161 908 140 888 q 213 929 182 929 q 264 908 243 929 q 285 856 285 888 q 264 803 285 825 z "},"ı":{"ha":382,"x_min":31,"x_max":360,"o":"m 250 625 l 247 318 q 258 85 247 139 l 261 67 q 297 48 263 57 q 360 36 331 39 l 356 -4 q 193 0 289 0 q 31 -4 97 0 l 35 36 q 97 48 64 39 q 132 67 131 57 q 143 261 143 115 q 132 550 143 497 l 43 576 l 40 613 q 224 638 129 613 l 250 625 z "},"Ł":{"ha":806,"x_min":39,"x_max":789,"o":"m 311 96 q 355 63 313 75 q 453 50 397 50 q 548 55 510 50 q 629 78 586 60 q 751 238 710 110 l 789 221 q 756 0 764 144 l 210 0 q 43 -4 131 0 l 39 36 q 135 61 110 50 q 163 96 160 72 q 174 367 171 160 l 53 278 l 53 363 l 175 451 l 175 475 q 167 828 175 742 l 164 856 q 139 891 161 881 q 50 915 117 901 l 54 956 q 238 951 142 951 q 421 956 333 951 l 425 915 q 336 891 358 901 q 311 856 314 881 q 300 543 301 783 l 583 750 l 583 665 l 300 458 q 308 122 300 204 l 311 96 z "},"ł":{"ha":378,"x_min":26,"x_max":353,"o":"m 240 489 q 256 67 240 158 q 292 47 257 57 q 353 36 326 38 l 349 -4 q 188 0 282 0 q 26 -4 93 0 l 31 36 q 92 48 60 39 q 126 67 125 57 q 136 438 135 146 l 35 364 l 35 443 l 136 517 q 128 903 136 832 l 125 926 l 36 953 l 33 989 q 217 1014 122 989 l 243 1001 q 240 593 240 858 l 347 671 l 347 592 l 240 514 l 240 489 z "},"Œ":{"ha":1365,"x_min":68,"x_max":1318,"o":"m 517 -17 q 178 104 289 -17 q 68 436 68 225 q 185 794 68 647 q 343 913 243 869 q 575 956 443 956 q 929 947 719 947 q 1258 960 1139 947 l 1258 939 q 1275 735 1258 826 l 1238 718 q 1211 791 1224 763 q 1177 840 1199 819 q 1138 870 1156 860 q 1079 886 1119 881 q 1007 892 1039 892 q 907 893 975 893 q 835 863 839 893 q 819 510 821 772 q 1031 518 996 510 q 1077 549 1067 526 q 1101 643 1088 571 l 1150 638 q 1139 482 1139 569 q 1150 328 1139 394 l 1101 321 q 1077 415 1088 393 q 1031 446 1067 438 q 819 454 996 454 q 831 121 819 211 l 835 94 q 975 50 847 50 q 1077 55 1039 50 q 1158 78 1115 60 q 1281 238 1239 110 l 1318 221 q 1285 0 1293 144 q 781 -8 989 0 q 517 -17 572 -17 m 289 185 q 308 153 289 185 q 394 83 326 121 q 533 44 461 44 q 682 96 676 44 q 694 392 694 176 q 686 828 694 742 l 683 856 q 569 897 678 897 q 426 868 490 897 q 323 794 361 839 q 258 693 285 750 q 214 497 214 593 q 233 326 214 401 q 289 185 251 250 z "},"œ":{"ha":1144,"x_min":54,"x_max":1101,"o":"m 890 639 q 1038 579 975 639 q 1101 401 1101 519 l 1054 344 q 925 346 1046 346 q 681 336 804 346 l 681 324 q 734 145 681 217 q 885 74 788 74 q 1067 115 983 74 l 1083 74 q 856 -12 982 -12 q 608 103 686 -12 q 360 -12 521 -12 q 126 67 199 -12 q 54 290 54 147 q 137 535 54 433 q 389 638 219 638 q 632 526 558 638 q 890 639 721 639 m 530 477 q 520 499 530 477 q 470 546 510 521 q 373 571 431 571 q 273 543 315 571 q 211 472 231 515 q 176 322 176 393 q 192 194 176 250 q 253 96 208 138 q 360 54 299 54 q 463 78 422 54 q 524 142 503 103 q 565 278 564 217 q 558 387 567 340 q 530 477 550 433 m 976 444 q 940 540 976 508 q 860 571 904 571 q 749 519 794 571 q 688 393 703 468 l 972 404 q 976 444 976 425 z "},"Š":{"ha":733,"x_min":67,"x_max":667,"o":"m 578 718 q 501 857 550 819 q 372 894 451 894 q 251 856 293 894 q 210 763 210 818 q 303 611 210 672 l 522 468 q 667 244 667 374 q 584 63 667 140 q 343 -14 501 -14 q 67 36 185 -14 q 89 240 89 150 l 126 257 q 192 100 147 143 q 330 57 236 57 q 473 103 424 57 q 522 211 522 149 q 432 354 522 296 l 210 500 q 82 714 82 583 q 161 890 82 815 q 368 964 240 964 q 460 953 410 964 q 538 943 511 943 q 599 951 564 943 l 599 931 q 615 735 599 829 l 578 718 m 392 1044 q 365 1039 381 1039 q 340 1043 349 1039 l 196 1314 l 238 1321 l 365 1163 l 494 1321 l 536 1314 l 392 1044 z "},"š":{"ha":531,"x_min":56,"x_max":486,"o":"m 290 726 q 263 721 279 721 q 239 725 247 721 l 94 996 l 136 1003 l 264 844 l 393 1003 l 435 996 l 290 726 m 431 614 l 450 604 q 458 467 450 514 l 422 454 q 372 553 404 525 q 289 581 339 581 q 210 554 239 581 q 181 492 181 528 q 253 389 181 429 l 394 311 q 486 163 486 260 q 430 40 486 92 q 269 -12 374 -12 q 56 22 165 -12 q 72 182 72 119 l 108 194 q 127 126 121 144 q 149 82 133 108 q 190 47 165 56 q 264 39 215 39 q 344 67 313 39 q 376 133 376 94 q 311 228 376 192 l 161 311 q 69 460 69 360 q 124 585 69 531 q 275 639 178 639 q 431 614 372 639 z "},"Ÿ":{"ha":890,"x_min":-6,"x_max":900,"o":"m 669 865 q 549 915 669 890 l 553 956 q 724 951 640 951 q 896 956 808 951 l 900 915 q 813 888 839 903 q 775 847 786 874 l 507 374 q 515 118 507 185 l 518 96 q 544 60 521 71 q 636 36 568 50 l 632 -4 q 442 0 544 0 q 251 -4 339 0 l 247 36 q 343 61 318 50 q 371 96 368 72 q 381 364 379 157 l 113 856 q 77 891 100 879 q -6 915 54 903 l -1 956 q 189 951 86 951 q 379 956 292 951 l 383 915 q 260 865 260 892 q 263 854 260 863 l 468 450 l 667 856 q 669 865 669 861 m 643 1122 q 633 1111 643 1122 q 592 1100 622 1100 q 540 1122 561 1100 q 519 1174 519 1143 q 540 1226 519 1206 q 592 1247 561 1247 q 643 1226 622 1247 q 664 1174 664 1206 q 643 1122 664 1143 m 393 1122 q 383 1111 393 1122 q 342 1100 372 1100 q 290 1122 311 1100 q 269 1174 269 1143 q 290 1226 269 1206 q 342 1247 311 1247 q 393 1226 372 1247 q 414 1174 414 1206 q 393 1122 414 1143 z "},"Ž":{"ha":889,"x_min":42,"x_max":853,"o":"m 371 74 q 692 97 626 74 q 788 172 760 124 q 815 238 803 199 l 853 221 q 819 0 828 144 l 75 0 l 42 49 l 664 876 q 224 856 297 876 q 115 718 151 835 l 78 735 q 94 939 94 829 l 94 960 q 622 951 208 951 l 806 951 l 831 906 l 210 74 l 371 74 m 469 1044 q 442 1039 458 1039 q 418 1043 426 1039 l 274 1314 l 315 1321 l 443 1163 l 572 1321 l 614 1314 l 469 1044 z "},"ž":{"ha":617,"x_min":36,"x_max":582,"o":"m 340 569 q 270 567 310 569 q 215 563 231 565 q 178 554 200 561 q 149 540 156 547 q 131 519 142 533 q 114 489 119 504 l 101 450 l 65 463 q 78 614 78 540 l 78 632 q 553 625 164 625 l 574 586 l 181 63 q 447 87 376 63 q 546 204 517 111 l 582 192 q 553 0 561 126 l 64 0 l 36 42 l 435 569 l 340 569 m 333 726 q 306 721 322 721 q 282 725 290 721 l 138 996 l 179 1003 l 307 844 l 436 1003 l 478 996 l 333 726 z "},"ƒ":{"ha":726,"x_min":-97,"x_max":667,"o":"m 478 875 l 597 872 q 651 879 617 872 q 667 689 651 778 l 633 674 q 488 822 592 822 q 396 714 407 822 l 371 461 l 569 461 l 561 401 l 365 401 l 331 54 q 244 -240 308 -172 q 190 -282 215 -272 q 133 -292 165 -292 q -97 -206 11 -292 l -78 -165 q 76 -207 14 -207 q 192 -103 160 -207 q 213 17 206 -56 l 253 401 l 100 401 l 108 461 l 258 461 l 283 707 q 343 842 294 808 q 478 875 392 875 z "},"ˆ":{"ha":451,"x_min":69,"x_max":382,"o":"m 200 997 q 224 1001 208 1001 q 251 996 240 1001 l 382 726 l 340 719 l 225 864 l 111 719 l 69 726 l 200 997 z "},"ˇ":{"ha":451,"x_min":56,"x_max":396,"o":"m 251 726 q 224 721 240 721 q 200 725 208 721 l 56 996 l 97 1003 l 225 844 l 354 1003 l 396 996 l 251 726 z "},"˘":{"ha":451,"x_min":46,"x_max":406,"o":"m 97 922 q 141 867 104 886 q 226 849 178 849 q 310 867 274 849 q 354 922 347 886 l 406 915 q 344 805 396 844 q 226 765 292 765 q 108 805 160 765 q 46 915 56 844 l 97 922 z "},"˙":{"ha":371,"x_min":115,"x_max":260,"o":"m 239 803 q 228 793 239 803 q 188 782 218 782 q 136 803 157 782 q 115 856 115 825 q 136 908 115 888 q 188 929 157 929 q 239 908 218 929 q 260 856 260 888 q 239 803 260 825 z "},"˚":{"ha":451,"x_min":79,"x_max":369,"o":"m 224 757 q 292 860 292 757 q 222 964 292 964 q 151 867 151 964 q 169 789 151 821 q 224 757 188 757 m 122 758 q 100 779 122 758 q 79 860 79 800 q 122 963 79 919 q 224 1006 164 1006 q 327 963 285 1006 q 369 860 369 921 q 328 758 369 800 q 225 715 286 715 q 122 758 164 715 z "},"˛":{"ha":638,"x_min":217,"x_max":453,"o":"m 453 -244 q 336 -282 396 -282 q 247 -252 276 -282 q 217 -166 217 -222 q 268 -49 217 -110 q 414 36 319 13 l 414 0 q 307 -135 307 -37 q 328 -193 307 -174 q 382 -212 350 -212 q 444 -200 414 -212 l 453 -244 z "},"˜":{"ha":500,"x_min":13,"x_max":468,"o":"m 343 771 q 243 798 311 771 q 142 825 175 825 q 49 772 86 825 l 13 783 q 138 924 54 924 q 237 897 168 924 q 339 869 306 869 q 432 922 392 869 l 468 911 q 343 771 425 771 z "},"˝":{"ha":396,"x_min":-182,"x_max":338,"o":"m 338 944 l 97 719 l 56 726 l 242 1003 q 306 985 276 1003 q 338 944 335 968 m 100 944 l -140 719 l -182 726 l 4 1003 q 68 985 39 1003 q 100 944 97 968 z "},"π":{"ha":749,"x_min":24,"x_max":714,"o":"m 643 531 q 554 533 607 531 l 554 129 q 588 75 554 75 q 630 97 607 75 q 671 149 653 118 l 711 124 q 630 24 676 60 q 541 -12 583 -12 q 472 23 499 -12 q 444 126 444 58 l 444 535 l 251 535 q 172 -3 251 50 q 138 -12 160 -12 q 93 19 117 -12 q 69 85 69 51 q 89 103 69 103 q 153 128 133 103 q 190 535 190 176 l 164 535 q 44 508 104 535 l 24 535 q 58 604 32 568 q 94 640 83 640 q 365 633 235 633 l 574 636 q 693 663 633 636 l 714 636 q 680 567 706 603 q 643 531 654 531 z "},"–":{"ha":778,"x_min":-10,"x_max":788,"o":"m 51 408 q 404 401 192 401 q 778 408 617 401 l 788 388 l 726 321 q 369 326 576 326 q 0 319 161 326 l -10 342 l 51 408 z "},"—":{"ha":1164,"x_min":-10,"x_max":1174,"o":"m 51 408 q 573 400 388 400 q 1164 408 758 400 l 1174 388 l 1113 321 q 575 324 946 324 q 0 319 204 324 l -10 342 l 51 408 z "},"‘":{"ha":299,"x_min":42,"x_max":257,"o":"m 219 682 q 219 667 219 682 q 197 633 219 651 q 137 614 174 614 q 71 649 100 614 q 42 739 42 683 q 92 853 42 794 q 244 944 142 911 l 257 914 q 107 731 107 846 q 154 751 126 751 q 201 732 182 751 q 219 682 219 713 z "},"’":{"ha":299,"x_min":42,"x_max":257,"o":"m 79 879 q 79 894 79 879 q 102 928 79 910 q 162 947 125 947 q 228 913 199 947 q 257 822 257 878 q 207 708 257 767 q 54 617 157 650 l 42 647 q 192 831 192 715 q 144 810 172 810 q 98 829 117 810 q 79 879 79 849 z "},"‚":{"ha":297,"x_min":42,"x_max":257,"o":"m 79 58 q 79 74 79 58 q 102 108 79 89 q 162 126 125 126 q 228 92 199 126 q 257 1 257 57 q 207 -112 257 -54 q 54 -204 157 -171 l 42 -174 q 192 10 192 -106 q 144 -11 172 -11 q 98 8 117 -11 q 79 58 79 28 z "},"“":{"ha":525,"x_min":42,"x_max":483,"o":"m 219 682 q 219 667 219 682 q 197 633 219 651 q 137 614 174 614 q 71 649 100 614 q 42 739 42 683 q 92 853 42 794 q 244 944 142 911 l 257 914 q 107 731 107 846 q 154 751 126 751 q 201 732 182 751 q 219 682 219 713 m 446 682 q 446 667 446 682 q 423 633 446 651 q 363 614 400 614 q 297 649 326 614 q 268 739 268 683 q 318 853 268 794 q 471 944 368 911 l 483 914 q 333 731 333 846 q 381 751 353 751 q 427 732 408 751 q 446 682 446 713 z "},"”":{"ha":525,"x_min":42,"x_max":483,"o":"m 306 879 q 306 894 306 879 q 328 928 306 910 q 388 947 351 947 q 454 913 425 947 q 483 822 483 878 q 433 708 483 767 q 281 617 383 650 l 268 647 q 418 831 418 715 q 371 810 399 810 q 324 829 343 810 q 306 879 306 849 m 79 879 q 79 894 79 879 q 102 928 79 910 q 162 947 125 947 q 228 913 199 947 q 257 822 257 878 q 207 708 257 767 q 54 617 157 650 l 42 647 q 192 831 192 715 q 144 810 172 810 q 98 829 117 810 q 79 879 79 849 z "},"„":{"ha":525,"x_min":42,"x_max":483,"o":"m 306 58 q 306 74 306 58 q 328 108 306 89 q 388 126 351 126 q 454 92 425 126 q 483 1 483 57 q 433 -112 483 -54 q 281 -204 383 -171 l 268 -174 q 418 10 418 -106 q 371 -11 399 -11 q 324 8 343 -11 q 306 58 306 28 m 79 58 q 79 74 79 58 q 102 108 79 89 q 162 126 125 126 q 228 92 199 126 q 257 1 257 57 q 207 -112 257 -54 q 54 -204 157 -171 l 42 -174 q 192 10 192 -106 q 144 -11 172 -11 q 98 8 117 -11 q 79 58 79 28 z "},"†":{"ha":581,"x_min":0,"x_max":578,"o":"m 338 625 q 331 408 331 521 q 357 0 331 296 l 290 -12 l 224 0 q 249 412 249 282 q 243 625 249 542 q 38 608 111 622 l 10 604 l 0 629 l 60 714 q 236 700 131 703 q 206 933 225 815 l 375 933 q 343 700 354 822 q 540 717 461 703 l 567 722 l 578 697 l 517 613 q 338 625 447 622 z "},"‡":{"ha":581,"x_min":0,"x_max":578,"o":"m 372 -283 l 203 -283 q 235 -50 224 -172 q 38 -67 117 -53 l 11 -72 l 0 -47 l 61 38 q 225 25 124 28 q 244 325 236 156 q 222 625 243 382 q 35 608 119 622 l 10 604 l 0 629 l 60 714 q 236 700 131 703 q 206 933 225 815 l 375 933 q 343 700 354 822 q 540 717 461 703 l 567 722 l 578 697 l 517 613 q 351 625 453 621 q 332 325 340 494 q 354 25 335 251 q 542 42 456 28 l 568 46 l 578 21 l 518 -64 q 342 -50 447 -53 q 372 -283 353 -165 z "},"•":{"ha":553,"x_min":97,"x_max":456,"o":"m 150 368 q 124 394 150 368 q 97 494 97 421 q 150 621 97 568 q 276 674 203 674 q 403 621 350 674 q 456 494 456 568 q 403 368 456 421 q 276 315 350 315 q 150 368 203 315 z "},"…":{"ha":813,"x_min":42,"x_max":771,"o":"m 458 9 q 447 -2 458 9 q 406 -12 436 -12 q 354 9 375 -12 q 333 63 333 31 q 354 115 333 94 q 406 136 375 136 q 458 115 436 136 q 479 63 479 94 q 458 9 479 31 m 749 9 q 739 -2 749 9 q 697 -12 728 -12 q 646 9 667 -12 q 625 63 625 31 q 646 115 625 94 q 697 136 667 136 q 749 115 728 136 q 771 63 771 94 q 749 9 771 31 m 166 9 q 155 -2 166 9 q 114 -12 144 -12 q 63 9 83 -12 q 42 63 42 31 q 63 115 42 94 q 114 136 83 136 q 166 115 144 136 q 188 63 188 94 q 166 9 188 31 z "},"‰":{"ha":1368,"x_min":111,"x_max":1299,"o":"m 203 -1 l 775 943 l 842 943 l 269 -1 l 203 -1 m 321 836 q 313 861 321 836 q 274 886 304 886 q 226 836 243 886 q 210 708 210 786 q 226 580 210 629 q 274 531 243 531 q 321 580 304 531 q 338 708 338 629 q 321 836 338 786 m 394 870 q 415 838 394 870 q 436 707 436 806 q 394 544 436 608 q 274 481 353 481 q 153 544 194 481 q 111 707 111 608 q 153 870 111 806 q 274 935 194 935 q 394 870 353 935 m 807 343 q 799 368 807 343 q 760 393 790 393 q 713 343 729 393 q 696 215 696 293 q 713 87 696 136 q 760 38 729 38 q 807 87 790 38 q 824 215 824 136 q 807 343 824 293 m 881 377 q 901 345 881 377 q 922 214 922 313 q 881 51 922 115 q 760 -12 839 -12 q 639 51 681 -12 q 597 214 597 115 q 639 377 597 313 q 760 442 681 442 q 881 377 839 442 m 1183 343 q 1175 368 1183 343 q 1136 393 1167 393 q 1089 343 1106 393 q 1072 215 1072 293 q 1089 87 1072 136 q 1136 38 1106 38 q 1183 87 1167 38 q 1200 215 1200 136 q 1183 343 1200 293 m 1257 377 q 1278 345 1257 377 q 1299 214 1299 313 q 1257 51 1299 115 q 1136 -12 1215 -12 q 1015 51 1057 -12 q 974 214 974 115 q 1015 377 974 313 q 1136 442 1057 442 q 1257 377 1215 442 z "},"‹":{"ha":515,"x_min":125,"x_max":376,"o":"m 131 289 q 125 310 125 300 q 131 331 125 319 l 349 540 l 376 517 l 232 310 l 376 103 l 349 79 l 131 289 z "},"›":{"ha":515,"x_min":139,"x_max":390,"o":"m 385 331 q 390 310 390 319 q 385 289 390 300 l 167 79 l 139 103 l 283 310 l 139 517 l 167 540 l 385 331 z "},"⁄":{"ha":639,"x_min":0,"x_max":639,"o":"m 0 -1 l 572 943 l 639 943 l 67 -1 l 0 -1 z "},"€":{"ha":726,"x_min":43,"x_max":682,"o":"m 454 890 q 535 881 490 890 q 601 872 581 872 q 657 879 622 872 l 657 861 q 672 689 657 781 l 639 674 q 571 796 614 763 q 456 829 528 829 q 261 526 286 829 l 521 526 l 513 467 l 258 467 q 257 394 257 443 l 521 394 l 513 335 l 258 335 q 324 137 267 201 q 489 72 381 72 q 663 114 571 72 l 682 74 q 440 -12 575 -12 q 217 82 306 -12 q 113 335 129 176 l 43 335 l 51 394 l 108 394 l 108 404 q 111 467 108 425 l 43 467 l 51 526 l 117 526 q 228 788 143 685 q 454 890 314 890 z "},"™":{"ha":1183,"x_min":139,"x_max":1142,"o":"m 668 508 q 738 464 668 476 l 735 440 q 640 442 706 442 q 551 440 574 442 l 549 464 q 592 474 581 469 q 606 490 604 479 q 619 824 619 565 q 610 859 619 851 q 563 875 601 867 l 564 899 q 699 896 619 896 l 843 533 l 990 896 q 1125 899 1069 896 l 1128 875 q 1085 863 1096 868 q 1074 849 1075 858 q 1071 693 1071 799 q 1082 492 1071 588 q 1142 464 1085 474 l 1140 440 q 1040 442 1110 442 q 940 440 971 442 l 938 464 q 990 480 979 471 q 1001 515 1001 489 q 994 768 1001 664 l 989 768 l 858 444 l 813 435 l 676 768 l 671 768 q 668 508 668 626 m 413 863 l 399 863 q 388 849 389 863 q 382 669 382 810 l 388 490 q 443 464 389 474 l 442 440 q 342 442 413 442 q 242 440 272 442 l 239 464 q 297 490 296 474 q 303 669 303 529 l 297 849 q 286 863 296 863 l 272 863 q 199 851 219 863 q 164 786 179 839 l 139 792 q 147 892 147 836 l 147 901 q 342 896 219 896 q 538 901 465 896 l 538 892 q 546 792 538 836 l 521 786 q 485 851 506 839 q 413 863 465 863 z "},"Ω":{"ha":1133,"x_min":28,"x_max":1106,"o":"m 250 71 q 319 79 281 71 l 326 104 q 157 272 219 168 q 94 500 94 376 q 233 825 94 690 q 567 960 371 960 q 901 825 763 960 q 1039 500 1039 690 q 976 272 1039 376 q 807 104 914 168 l 814 79 q 883 71 853 71 q 999 113 957 71 q 1068 238 1042 154 l 1106 221 q 1072 0 1081 144 l 758 0 l 725 124 q 845 287 801 172 q 889 517 889 401 q 794 778 889 671 q 567 886 700 886 q 339 778 433 886 q 244 517 244 671 q 288 287 244 401 q 408 124 332 172 l 375 0 l 61 0 q 28 221 53 144 l 65 238 q 134 113 92 154 q 250 71 176 71 z "},"∂":{"ha":638,"x_min":28,"x_max":610,"o":"m 231 863 q 111 836 171 863 l 90 863 q 124 927 99 894 q 161 960 150 960 q 306 924 229 960 q 451 822 382 888 q 565 647 519 756 q 610 426 610 539 q 565 218 610 314 q 434 55 521 122 q 242 -12 347 -12 q 83 52 138 -12 q 28 215 28 117 q 70 408 28 313 q 197 570 113 503 q 386 638 282 638 q 461 622 431 638 l 467 625 q 375 799 436 735 q 231 863 314 863 m 150 233 q 150 194 150 233 q 181 102 150 154 q 274 50 211 50 q 387 104 336 50 q 463 235 438 158 q 488 392 488 313 q 456 523 488 471 q 363 575 425 575 q 250 521 300 575 q 175 390 200 467 q 150 233 150 313 z "},"∆":{"ha":854,"x_min":0,"x_max":854,"o":"m 446 960 l 461 960 l 854 0 l 0 0 l 446 960 m 678 69 l 403 733 l 93 69 l 678 69 z "},"∏":{"ha":1113,"x_min":42,"x_max":1071,"o":"m 806 871 l 313 871 q 301 422 301 614 q 310 -114 301 103 l 313 -186 q 339 -222 315 -211 q 431 -246 363 -232 l 426 -286 q 236 -282 339 -282 q 46 -286 133 -282 l 42 -246 q 138 -221 113 -232 q 165 -186 163 -210 q 176 275 176 60 q 168 794 176 622 l 165 853 q 140 888 163 878 q 51 913 118 899 l 56 953 q 242 949 143 949 l 882 949 q 1063 953 975 949 l 1067 913 q 978 888 1000 899 q 953 853 956 878 q 942 439 942 656 q 950 -117 942 92 l 953 -186 q 979 -222 956 -211 q 1071 -246 1003 -232 l 1067 -286 q 876 -282 979 -282 q 686 -286 774 -282 l 682 -246 q 778 -221 753 -232 q 806 -186 803 -210 q 817 251 817 72 q 815 508 817 431 q 813 648 814 586 q 810 760 811 710 q 807 840 808 810 q 806 871 806 869 z "},"∑":{"ha":908,"x_min":42,"x_max":867,"o":"m 50 949 l 807 949 l 807 928 q 824 724 807 818 l 786 707 q 674 849 753 815 q 423 882 594 882 q 246 851 251 882 l 571 360 l 182 -167 q 263 -195 182 -185 q 453 -206 343 -206 q 829 -44 744 -206 l 867 -61 q 833 -282 842 -137 l 42 -282 l 42 -233 l 451 314 l 50 907 l 50 949 z "},"−":{"ha":726,"x_min":33,"x_max":693,"o":"m 33 379 l 33 464 l 693 464 l 693 379 l 33 379 z "},"√":{"ha":797,"x_min":0,"x_max":804,"o":"m 804 960 l 624 960 l 364 0 l 324 0 l 131 571 l 13 546 l 0 597 l 225 646 l 354 240 l 361 240 l 564 1014 l 804 1014 l 804 960 z "},"∞":{"ha":833,"x_min":22,"x_max":811,"o":"m 690 344 q 708 360 690 344 q 726 433 726 376 q 690 524 726 490 q 603 557 653 557 q 515 524 554 557 q 457 433 476 492 q 515 343 476 375 q 603 311 554 311 q 690 344 653 311 m 607 638 q 749 582 688 638 q 811 433 811 526 q 749 285 811 340 q 607 229 688 229 q 417 350 481 229 q 226 229 353 229 q 84 285 146 229 q 22 433 22 340 q 84 582 22 526 q 226 638 146 638 q 417 517 353 638 q 607 638 481 638 m 144 524 q 125 507 144 524 q 107 433 107 490 q 144 344 107 376 q 230 311 181 311 q 318 343 279 311 q 376 433 357 375 q 318 524 357 492 q 230 557 279 557 q 144 524 181 557 z "},"∫":{"ha":392,"x_min":-92,"x_max":483,"o":"m 142 88 l 142 572 q 221 844 142 729 q 429 960 300 960 q 457 927 438 960 q 483 863 476 894 l 467 836 q 376 863 424 863 q 304 843 329 863 q 250 579 250 801 l 250 94 q 171 -178 250 -62 q -37 -293 92 -293 q -65 -260 -46 -293 q -92 -196 -85 -228 l -75 -169 q 15 -196 -32 -196 q 88 -176 63 -196 q 142 88 142 -135 z "},"≈":{"ha":726,"x_min":33,"x_max":693,"o":"m 693 492 q 526 531 594 531 q 362 492 457 531 q 197 454 267 454 q 33 492 128 454 l 33 576 q 197 539 128 539 q 362 577 267 539 q 526 615 457 615 q 693 576 594 615 l 693 492 m 693 267 q 526 306 594 306 q 362 267 457 306 q 197 229 267 229 q 33 267 128 229 l 33 351 q 197 314 128 314 q 362 352 267 314 q 526 390 457 390 q 693 351 594 390 l 693 267 z "},"≠":{"ha":726,"x_min":33,"x_max":693,"o":"m 33 267 l 33 351 l 269 351 l 350 492 l 33 492 l 33 576 l 399 576 l 575 886 l 665 886 l 489 576 l 693 576 l 693 492 l 440 492 l 360 351 l 693 351 l 693 267 l 311 267 l 153 -12 l 63 -12 l 221 267 l 33 267 z "},"≤":{"ha":726,"x_min":47,"x_max":676,"o":"m 676 78 l 51 421 l 676 764 l 676 668 l 210 421 l 676 174 l 676 78 m 47 -83 l 47 1 l 676 1 l 676 -83 l 47 -83 z "},"≥":{"ha":726,"x_min":49,"x_max":678,"o":"m 674 421 l 49 78 l 49 174 l 515 421 l 49 668 l 49 764 l 674 421 m 678 1 l 678 -83 l 49 -83 l 49 1 l 678 1 z "},"◊":{"ha":625,"x_min":56,"x_max":569,"o":"m 344 0 l 279 0 l 56 479 l 279 960 l 344 960 l 569 479 l 344 0 m 479 479 l 313 876 l 147 479 l 313 83 l 479 479 z "},"":{"ha":1282,"x_min":139,"x_max":1143,"o":"m 818 -124 l 786 -122 q 742 -139 767 -122 q 706 -156 718 -156 l 642 -142 q 609 -150 631 -142 q 576 -158 588 -158 q 542 -141 564 -158 q 501 -124 519 -124 l 468 -126 q 422 -103 447 -126 l 397 -76 q 363 -67 381 -68 q 332 -58 344 -65 q 310 -26 319 -50 q 292 5 300 -1 q 265 19 285 11 q 238 39 246 26 q 228 72 231 51 q 219 101 225 92 q 200 119 214 110 q 169 172 169 144 l 174 207 q 156 244 174 219 q 139 281 139 268 q 147 313 139 293 q 156 345 156 333 q 147 375 156 357 q 139 406 139 393 q 156 447 139 418 q 174 488 174 475 l 172 522 q 195 563 172 543 q 222 590 218 583 q 228 619 225 597 q 236 650 231 642 q 263 667 242 658 q 292 682 285 675 q 308 710 299 689 q 327 740 318 732 q 363 753 336 747 q 397 763 389 758 q 425 790 404 767 q 465 815 446 814 l 501 813 q 541 828 519 813 q 578 844 563 844 l 639 828 l 701 844 q 742 827 719 844 q 781 810 764 810 l 819 814 q 860 791 842 814 q 887 763 878 768 q 917 754 896 758 q 948 743 938 750 q 965 717 958 736 q 980 690 972 697 q 1015 669 988 683 q 1049 643 1043 654 q 1056 610 1056 632 q 1060 581 1057 588 q 1088 555 1064 575 q 1111 513 1111 535 l 1110 478 q 1126 434 1110 460 q 1143 396 1143 408 q 1135 365 1143 383 q 1128 338 1128 347 q 1135 308 1128 328 q 1142 276 1143 288 q 1125 248 1142 265 q 1108 211 1108 231 l 1111 167 q 1089 126 1111 144 q 1063 101 1067 108 q 1053 68 1060 94 q 1040 33 1047 42 q 1015 16 1032 24 q 990 1 997 8 q 971 -28 983 -6 q 949 -58 958 -51 q 915 -72 939 -65 q 883 -82 890 -78 q 858 -105 876 -86 q 818 -124 839 -124 m 642 -8 l 688 -18 q 711 -8 696 -18 q 749 6 732 6 l 769 4 q 799 18 786 4 q 816 35 811 32 q 839 42 821 38 q 865 53 857 47 q 881 74 872 58 q 895 95 890 90 q 913 106 900 100 q 931 117 925 111 q 940 143 936 124 q 948 168 944 163 q 967 186 951 174 q 982 218 982 199 l 981 246 q 992 274 981 261 q 1006 296 1004 288 l 994 340 l 1006 379 q 993 410 1006 390 q 981 442 981 429 l 982 465 q 965 496 982 482 q 946 515 949 510 q 942 537 943 521 q 938 560 942 553 q 913 578 933 568 q 888 594 893 589 q 876 614 882 600 q 864 633 871 628 q 842 642 857 639 q 819 648 826 644 q 800 668 813 651 q 771 685 788 685 l 743 682 q 715 694 731 682 q 686 707 700 707 l 640 694 l 596 707 q 568 695 585 707 q 538 683 551 683 l 514 685 q 484 667 499 685 q 463 647 469 650 q 439 640 457 643 q 414 631 421 636 q 400 610 407 625 q 388 589 393 594 q 367 578 382 583 q 347 565 353 572 q 342 544 344 560 q 336 522 339 528 q 317 502 333 517 q 300 472 300 488 l 301 450 q 290 418 301 439 q 278 386 278 397 l 289 344 l 278 299 q 290 270 278 288 q 301 242 301 253 l 299 219 q 316 188 299 204 q 336 167 333 172 q 341 147 339 161 q 349 123 343 132 q 368 108 354 114 q 388 98 382 103 q 401 75 393 93 q 417 51 408 57 q 438 46 425 46 q 460 42 451 46 q 484 20 468 38 q 515 3 500 3 l 536 4 q 567 -8 550 4 q 592 -21 583 -19 l 642 -8 m 475 510 q 510 545 475 510 q 642 579 544 579 q 808 510 739 579 q 878 343 878 442 q 808 176 878 244 q 642 107 739 107 q 475 176 544 107 q 406 343 406 244 q 475 510 406 442 m 701 406 l 774 406 l 774 500 l 508 500 l 508 406 l 583 406 l 583 163 l 701 163 l 701 406 z "},"ﬀ":{"ha":868,"x_min":32,"x_max":975,"o":"m 571 564 l 246 564 q 260 67 246 178 q 299 47 261 57 q 365 36 338 38 l 361 -4 q 197 0 294 0 q 32 -4 99 0 l 36 36 q 97 48 64 39 q 131 67 129 57 q 142 564 142 67 l 46 563 l 42 578 l 74 632 q 140 626 93 629 q 169 788 140 718 q 246 897 197 858 q 470 975 340 975 q 679 903 600 975 q 805 985 736 958 q 904 1013 874 1013 q 941 980 915 1013 q 975 915 967 947 l 954 889 q 835 915 894 915 q 675 628 675 915 l 856 629 l 863 613 l 819 558 q 675 564 772 563 q 689 67 675 178 q 728 47 690 57 q 794 36 767 38 l 790 -4 q 626 0 724 0 q 461 -4 528 0 l 465 36 q 526 48 493 39 q 560 67 558 57 q 571 564 571 67 m 428 918 q 303 864 351 918 q 246 624 246 801 q 407 621 340 621 q 569 625 474 621 q 622 832 569 744 q 428 918 536 918 z "},"ﬁ":{"ha":807,"x_min":32,"x_max":785,"o":"m 675 625 l 672 318 q 683 85 672 139 l 686 67 q 722 48 688 57 q 785 36 756 39 l 781 -4 q 618 0 714 0 q 456 -4 522 0 l 460 36 q 522 48 489 39 q 557 67 556 57 q 568 261 568 115 q 557 550 568 497 q 403 571 488 571 q 246 564 319 571 q 260 67 246 178 q 299 47 261 57 q 365 36 338 38 l 361 -4 q 197 0 294 0 q 32 -4 99 0 l 36 36 q 97 48 64 39 q 131 67 129 57 q 142 564 142 67 l 46 563 l 42 578 l 74 632 q 140 626 93 629 q 163 776 140 708 q 222 886 186 843 q 306 958 258 929 q 497 1014 392 1014 q 612 992 563 1014 q 661 933 661 969 q 593 847 661 879 q 432 931 525 931 q 246 628 246 931 q 649 638 601 628 l 675 625 z "},"ﬂ":{"ha":817,"x_min":32,"x_max":792,"o":"m 361 -4 q 197 0 294 0 q 32 -4 99 0 l 36 36 q 97 48 64 39 q 131 67 129 57 q 142 564 142 67 l 46 563 l 42 578 l 74 632 q 140 626 93 629 q 173 791 140 718 q 258 908 206 864 q 510 1001 368 1001 q 624 983 565 1001 l 656 1014 l 682 1001 q 679 493 679 828 q 694 67 679 158 q 731 47 696 57 q 792 36 765 38 l 788 -4 q 626 0 721 0 q 465 -4 532 0 l 469 36 q 531 48 499 39 q 565 67 564 57 q 575 480 575 157 q 567 892 575 803 q 422 928 485 928 q 246 628 246 928 l 426 629 l 433 613 l 390 558 q 246 564 343 563 q 260 67 246 178 q 299 47 261 57 q 365 36 338 38 l 361 -4 z "},"ﬃ":{"ha":1238,"x_min":32,"x_max":1214,"o":"m 1104 625 l 1101 318 q 1111 85 1101 139 l 1115 67 q 1151 48 1117 57 q 1214 36 1185 39 l 1210 -4 q 1047 0 1143 0 q 885 -4 951 0 l 889 36 q 951 48 918 39 q 986 67 985 57 q 997 261 997 115 q 986 550 997 497 q 797 564 917 564 l 675 564 q 689 67 675 178 q 728 47 690 57 q 794 36 767 38 l 790 -4 q 626 0 724 0 q 461 -4 528 0 l 465 36 q 526 48 493 39 q 560 67 558 57 q 571 564 571 67 l 246 564 q 260 67 246 178 q 299 47 261 57 q 365 36 338 38 l 361 -4 q 197 0 294 0 q 32 -4 99 0 l 36 36 q 97 48 64 39 q 131 67 129 57 q 142 564 142 67 l 46 564 l 42 579 l 74 633 q 140 628 93 631 q 169 790 140 719 q 246 900 197 860 q 468 976 340 976 q 676 914 596 976 q 926 1014 778 1014 q 1041 992 992 1014 q 1090 933 1090 969 q 1022 847 1090 879 q 861 931 954 931 q 675 628 675 931 q 1078 638 1031 628 l 1104 625 m 428 919 q 303 867 351 919 q 246 625 246 803 q 407 622 340 622 q 569 626 474 622 q 622 843 569 756 q 428 919 539 919 z "},"ﬄ":{"ha":1246,"x_min":32,"x_max":1221,"o":"m 1111 1001 q 1108 493 1108 828 q 1124 67 1108 158 q 1160 47 1125 57 q 1221 36 1194 38 l 1217 -4 q 1056 0 1150 0 q 894 -4 961 0 l 899 36 q 960 48 928 39 q 994 67 993 57 q 1004 450 1004 157 q 996 893 1004 743 q 853 928 914 928 q 675 628 675 928 l 856 629 l 863 613 l 819 558 q 675 564 772 563 q 689 67 675 178 q 728 47 690 57 q 794 36 767 38 l 790 -4 q 626 0 724 0 q 461 -4 528 0 l 465 36 q 526 48 493 39 q 560 67 558 57 q 571 564 571 67 l 246 564 q 260 67 246 178 q 299 47 261 57 q 365 36 338 38 l 361 -4 q 197 0 294 0 q 32 -4 99 0 l 36 36 q 97 48 64 39 q 131 67 129 57 q 142 564 142 67 l 46 563 l 42 578 l 74 632 q 140 626 93 629 q 169 788 140 718 q 246 897 197 858 q 472 975 340 975 q 681 901 603 975 q 939 1001 788 1001 q 1000 996 972 1001 q 1085 1014 1029 1000 l 1111 1001 m 428 918 q 303 864 351 918 q 246 624 246 801 q 407 621 340 621 q 569 625 474 621 q 624 832 569 746 q 428 918 535 918 z "}," ":{"ha":347,"x_min":0,"x_max":0,"o":""}}}
